# Blender v3.2.2 OBJ File: 'Casa.blend'
# www.blender.org
mtllib Casa_Puerta.mtl
o Puerta_Casa_Cube.002
v -9.915840 0.638224 6.093480
v 2.240697 1.681269 6.016331
v 0.596162 14.281251 6.549145
v -8.278904 14.254681 6.559209
v -12.191648 7.812062 6.499620
v 4.618782 7.806818 6.454741
v -12.699594 2.049224 6.627304
v -3.877572 0.697009 5.791709
v 4.719660 4.292148 6.402084
v -12.370852 0.933786 6.556849
v -3.876081 15.269025 6.602598
v -10.947256 11.363419 6.490520
v 3.350612 11.413654 6.459913
v -12.635386 4.483862 6.562029
v -9.915840 0.638224 7.051465
v 2.240697 1.681269 6.974316
v 0.596162 14.281251 7.507130
v -8.278904 14.254681 7.517194
v -12.191648 7.812062 7.457605
v 4.618782 7.806818 7.412725
v -12.699594 2.049224 7.585289
v -3.877572 0.697009 6.749694
v 4.719660 4.292148 7.360069
v -12.370852 0.933786 7.514833
v -3.876081 15.269025 7.560583
v -10.947256 11.363419 7.448504
v 3.350612 11.413654 7.417898
v -12.635386 4.483862 7.520014
vt 0.284868 0.425577
vt 0.286471 0.436470
vt 0.287762 0.425611
vt 0.283435 0.564613
vt 0.286179 0.576193
vt 0.286328 0.564646
vt 0.284696 0.480876
vt 0.286276 0.473425
vt 0.287589 0.480909
vt 0.284868 0.484390
vt 0.287479 0.491777
vt 0.284586 0.491743
vt 0.287174 0.501915
vt 0.284165 0.538777
vt 0.287085 0.525164
vt 0.287058 0.538811
vt 0.286737 0.552641
vt 0.283578 0.436437
vt 0.285576 0.455178
vt 0.282683 0.455144
vt 0.284280 0.501881
vt 0.287015 0.513279
vt 0.284122 0.513246
vt 0.283383 0.473392
vt 0.284192 0.525131
vt 0.283286 0.576159
vt 0.285897 0.586810
vt 0.283004 0.586776
vt 0.283843 0.552607
vt 0.688232 0.791731
vt 0.689386 0.788407
vt 0.696963 0.787828
vt 0.741093 0.811577
vt 0.741403 0.800961
vt 0.749406 0.793507
vt 0.287762 0.484424
vt 0.715197 0.788806
vt 0.689092 0.809188
vt 0.733526 0.792655
vt 0.739858 0.811511
vt 0.740685 0.800922
vt 0.735510 0.822209
vt 0.726798 0.830478
vt 0.713167 0.832839
vt 0.700024 0.829165
vt 0.692375 0.820069
vt 0.688155 0.799089
vt 0.768041 0.791642
vt 0.786276 0.792620
vt 0.791816 0.814700
vt 0.793747 0.794006
vt 0.794539 0.797435
vt 0.793828 0.804759
vt 0.787388 0.825167
vt 0.778809 0.833393
vt 0.765349 0.835639
vt 0.752049 0.831833
vt 0.744271 0.822679
vn -0.7252 0.6885 0.0000
vn -0.9434 -0.3317 0.0000
vn -0.1195 -0.9928 0.0000
vn -0.9997 0.0264 0.0000
vn 0.9592 0.2827 0.0000
vn 0.9912 -0.1322 0.0000
vn -0.2245 0.9745 0.0000
vn -0.2157 -0.9765 0.0000
vn 0.1588 -0.9873 0.0000
vn -0.9437 0.3307 0.0000
vn -0.0097 1.0000 0.0000
vn 0.7349 -0.6782 0.0000
vn 0.9996 0.0287 0.0000
vn 0.7212 0.6927 0.0000
vn 0.1846 -0.0077 0.9828
vn 0.1345 0.0187 -0.9907
vn 0.0503 -0.0405 0.9979
vn -0.0268 -0.0610 0.9978
vn -0.1345 -0.0187 0.9907
vn -0.0593 -0.0223 0.9980
vn -0.0191 -0.0494 0.9986
vn -0.0003 -0.0556 0.9985
vn -0.0056 -0.0186 0.9998
vn 0.0149 -0.0556 0.9983
vn 0.0670 -0.0209 0.9975
vn 0.1650 -0.0035 0.9863
vn 0.1986 0.0210 0.9799
vn 0.0268 0.0610 -0.9978
vn -0.0503 0.0405 -0.9979
vn -0.1846 0.0077 -0.9828
vn -0.1986 -0.0210 -0.9799
vn -0.1650 0.0035 -0.9863
vn -0.0670 0.0209 -0.9975
vn 0.0056 0.0186 -0.9998
vn -0.0149 0.0556 -0.9983
vn 0.0003 0.0556 -0.9985
vn 0.0191 0.0494 -0.9986
vn 0.0593 0.0223 -0.9980
usemtl Casa
s off
f 9/1/1 16/2/1 23/3/1
f 13/4/2 20/5/2 27/6/2
f 10/7/3 15/8/3 24/9/3
f 7/10/4 28/11/4 14/12/4
f 7/10/5 24/9/5 10/7/5
f 14/12/6 19/13/6 28/11/6
f 11/14/7 18/15/7 25/16/7
f 11/14/8 17/17/8 25/16/8
f 2/18/9 22/19/9 8/20/9
f 5/21/10 26/22/10 12/23/10
f 1/24/11 22/19/11 8/20/11
f 4/25/12 26/22/12 12/23/12
f 6/26/13 23/27/13 9/28/13
f 3/29/14 27/6/14 13/4/14
f 21/30/15 24/31/15 15/32/15
f 6/33/16 9/34/16 2/35/16
f 9/1/1 2/18/1 16/2/1
f 13/4/2 6/26/2 20/5/2
f 10/7/3 1/24/3 15/8/3
f 7/10/4 21/36/4 28/11/4
f 7/10/5 21/36/5 24/9/5
f 14/12/6 5/21/6 19/13/6
f 11/14/7 4/25/7 18/15/7
f 11/14/8 3/29/8 17/17/8
f 2/18/9 16/2/9 22/19/9
f 5/21/10 19/13/10 26/22/10
f 1/24/11 15/8/11 22/19/11
f 4/25/12 18/15/12 26/22/12
f 6/26/13 20/5/13 23/27/13
f 3/29/14 17/17/14 27/6/14
f 15/32/17 22/37/17 19/38/17
f 22/37/18 16/39/18 20/40/18
f 16/39/19 23/41/19 20/40/19
f 20/40/20 27/42/20 22/37/20
f 27/42/21 17/43/21 22/37/21
f 17/43/22 25/44/22 22/37/22
f 25/44/23 18/45/23 26/46/23
f 22/37/24 25/44/24 26/46/24
f 26/46/25 19/38/25 22/37/25
f 19/38/26 28/47/26 15/32/26
f 28/47/27 21/30/27 15/32/27
f 2/35/28 8/48/28 6/33/28
f 8/48/29 1/49/29 5/50/29
f 1/49/30 10/51/30 7/52/30
f 7/52/31 14/53/31 1/49/31
f 14/53/32 5/50/32 1/49/32
f 5/50/33 12/54/33 8/48/33
f 12/54/34 4/55/34 11/56/34
f 8/48/35 12/54/35 11/56/35
f 11/56/36 3/57/36 8/48/36
f 3/57/37 13/58/37 8/48/37
f 13/58/38 6/33/38 8/48/38
