# Blender v3.2.2 OBJ File: 'mesa.blend'
# www.blender.org
mtllib Mesa.mtl
o Mesa_Cube
v 5.751127 4.522549 -2.832542
v 5.751127 4.212814 -2.587969
v 5.767458 4.522549 2.990255
v 5.767458 4.212814 2.734946
v 0.000000 4.212814 -2.996239
v 0.000000 4.522549 3.276086
v 0.000000 4.212814 2.996239
v 0.000000 4.522549 -3.279153
v 5.906597 4.522549 -1.111938
v 5.612642 4.522549 1.091006
v 5.612642 4.212814 0.998746
v 5.906597 4.212814 -1.015077
v 0.000000 4.212814 -0.998746
v 0.000000 4.212814 0.998747
v 0.000000 4.522549 -1.094073
v 0.000000 4.522549 1.091006
v 2.697890 2.485746 0.507881
v 0.961263 2.379729 0.424111
v 2.755383 3.038419 -0.507880
v 0.889628 3.164638 -0.424110
v 4.024261 2.421892 0.507881
v 3.994451 2.976545 0.507881
v 4.024261 2.421892 -0.507880
v 3.994452 2.976545 -0.507880
v 0.000000 2.550698 -0.533587
v 0.000000 3.101146 -0.474565
v 0.000000 2.448243 0.474566
v 0.000000 2.998690 0.533588
v 2.697890 2.485746 -0.507880
v 0.894146 2.625976 -0.559275
v 2.755383 3.038419 0.507881
v 0.956744 2.918392 0.559276
v 3.973267 0.304129 1.943540
v 4.048261 2.303285 1.058778
v 3.973267 0.304129 -1.947395
v 4.048261 2.303285 -1.062634
v 4.307458 0.304129 1.943540
v 4.216713 2.303285 1.058778
v 4.307458 0.304129 -1.947395
v 4.216713 2.303285 -1.062634
v 3.960956 1.651559 2.001511
v 3.960956 1.651559 -2.005366
v 4.319770 1.651559 -2.005366
v 4.319770 1.651559 2.001511
v 3.988608 0.961225 -0.418689
v 3.988608 0.961225 0.447182
v 4.014750 4.225464 0.492317
v 4.014750 4.225464 -0.496172
v 4.292117 0.961225 0.447182
v 4.292117 0.961225 -0.418689
v 4.250225 4.225464 -0.496172
v 4.250225 4.225464 0.492317
v 4.411353 1.647021 -0.580220
v 4.411353 1.647021 0.576365
v 3.869372 1.647021 0.576365
v 3.869372 1.647021 -0.580220
v 3.946274 0.422531 0.779089
v 4.245039 3.927984 0.579984
v 4.397180 1.647723 0.796923
v 4.019936 3.927984 0.579984
v 4.334451 0.422531 0.779089
v 3.883546 1.647723 0.796923
v 4.019422 3.957468 -0.575150
v 4.334941 0.424680 -0.761813
v 3.882141 1.647654 -0.778918
v 3.945785 0.424680 -0.761813
v 4.245553 3.957468 -0.575150
v 4.398584 1.647654 -0.778918
v -5.751127 4.522549 -2.832542
v -5.751127 4.212814 -2.587969
v -5.767458 4.522549 2.990255
v -5.767458 4.212814 2.734946
v -5.906597 4.522549 -1.111938
v -5.612642 4.522549 1.091006
v -5.612642 4.212814 0.998746
v -5.906597 4.212814 -1.015077
v -2.697890 2.485746 0.507881
v -0.961263 2.379729 0.424111
v -2.755383 3.038419 -0.507880
v -0.889628 3.164638 -0.424110
v -4.024261 2.421892 0.507881
v -3.994451 2.976545 0.507881
v -4.024261 2.421892 -0.507880
v -3.994452 2.976545 -0.507880
v -2.697890 2.485746 -0.507880
v -0.894146 2.625976 -0.559275
v -2.755383 3.038419 0.507881
v -0.956744 2.918392 0.559276
v -3.973267 0.304129 1.943540
v -4.048261 2.303285 1.058778
v -3.973267 0.304129 -1.947395
v -4.048261 2.303285 -1.062634
v -4.307458 0.304129 1.943540
v -4.216713 2.303285 1.058778
v -4.307458 0.304129 -1.947395
v -4.216713 2.303285 -1.062634
v -3.960956 1.651559 2.001511
v -3.960956 1.651559 -2.005366
v -4.319770 1.651559 -2.005366
v -4.319770 1.651559 2.001511
v -3.988608 0.961225 -0.418689
v -3.988608 0.961225 0.447182
v -4.014750 4.225464 0.492317
v -4.014750 4.225464 -0.496172
v -4.292117 0.961225 0.447182
v -4.292117 0.961225 -0.418689
v -4.250225 4.225464 -0.496172
v -4.250225 4.225464 0.492317
v -4.411353 1.647021 -0.580220
v -4.411353 1.647021 0.576365
v -3.869372 1.647021 0.576365
v -3.869372 1.647021 -0.580220
v -3.946274 0.422531 0.779089
v -4.245039 3.927984 0.579984
v -4.397180 1.647723 0.796923
v -4.019936 3.927984 0.579984
v -4.334451 0.422531 0.779089
v -3.883546 1.647723 0.796923
v -4.019422 3.957468 -0.575150
v -4.334941 0.424680 -0.761813
v -3.882141 1.647654 -0.778918
v -3.945785 0.424680 -0.761813
v -4.245553 3.957468 -0.575150
v -4.398584 1.647654 -0.778918
vt 0.639215 0.058057
vt 0.734899 0.288949
vt 0.651207 0.293217
vt 0.024237 0.407322
vt 0.034592 0.412535
vt 0.034607 0.407352
vt 0.035151 0.219438
vt 0.024224 0.411958
vt 0.034594 0.411988
vt 0.024222 0.412505
vt 0.035151 0.219438
vt 0.304643 0.062642
vt 0.208273 0.296223
vt 0.225111 0.054551
vt 0.469330 0.060131
vt 0.391577 0.299897
vt 0.397291 0.052164
vt 0.024208 0.417164
vt 0.034579 0.417194
vt 0.488642 0.059919
vt 0.567516 0.297485
vt 0.483824 0.301753
vt 0.859846 0.547337
vt 0.903047 0.636435
vt 0.854674 0.635925
vt 0.828401 0.633979
vt 0.853937 0.694692
vt 0.827799 0.697062
vt 0.667431 0.771428
vt 0.715753 0.797852
vt 0.667431 0.797852
vt 0.902257 0.695364
vt 0.779516 0.633406
vt 0.759255 0.550242
vt 0.785355 0.550693
vt 0.905711 0.504874
vt 0.907845 0.550721
vt 0.830743 0.504874
vt 0.782481 0.504874
vt 0.753795 0.694454
vt 0.779860 0.696916
vt 0.833430 0.547549
vt 0.857092 0.504874
vt 0.425050 0.868116
vt 0.411142 0.900284
vt 0.366453 0.869083
vt 0.069958 0.188839
vt 0.092887 0.244184
vt 0.100656 0.188261
vt 0.277969 0.672346
vt 0.264587 0.704525
vt 0.220373 0.672589
vt 0.092887 0.244184
vt 0.069958 0.188839
vt 0.100656 0.188261
vt 0.099934 0.083091
vt 0.068843 0.073542
vt 0.066724 0.083715
vt 0.078667 0.383499
vt 0.097925 0.383137
vt 0.097434 0.073004
vt 0.278007 0.613954
vt 0.222732 0.608664
vt 0.097434 0.073004
vt 0.068843 0.073542
vt 0.424434 0.809839
vt 0.368070 0.805105
vt 0.500157 0.866582
vt 0.482761 0.833841
vt 0.498406 0.808224
vt 0.489609 0.866815
vt 0.441618 0.834690
vt 0.353128 0.671570
vt 0.335519 0.638676
vt 0.351890 0.613310
vt 0.288525 0.672260
vt 0.294385 0.639085
vt 0.078670 0.386022
vt 0.098847 0.408579
vt 0.098016 0.385658
vt 0.078702 0.408958
vt 0.098847 0.408579
vt 0.066686 0.083900
vt 0.097179 0.129246
vt 0.071213 0.129734
vt 0.071213 0.129734
vt 0.344680 0.781883
vt 0.343623 0.671695
vt 0.340895 0.794656
vt 0.492080 0.975549
vt 0.488036 0.989775
vt 0.434550 0.867949
vt 0.514317 0.898204
vt 0.557713 0.865217
vt 0.553531 0.801358
vt 0.289343 0.781076
vt 0.368188 0.703435
vt 0.411740 0.670611
vt 0.078476 0.244455
vt 0.408044 0.606748
vt 0.436832 0.978061
vt 0.663199 0.528377
vt 0.035711 0.026341
vt 0.025326 0.031494
vt 0.035696 0.031524
vt 0.025339 0.026857
vt 0.024781 0.219408
vt 0.025341 0.026311
vt 0.295207 0.533478
vt 0.299925 0.298060
vt 0.459661 0.542585
vt 0.483228 0.301734
vt 0.387360 0.547660
vt 0.035709 0.026887
vt 0.025354 0.021652
vt 0.035724 0.021682
vt 0.513218 0.541843
vt 0.579452 0.544996
vt 0.903047 0.373312
vt 0.859846 0.462410
vt 0.854674 0.373822
vt 0.828401 0.375768
vt 0.853937 0.315055
vt 0.751310 0.646565
vt 0.724885 0.598243
vt 0.751310 0.598243
vt 0.902257 0.314383
vt 0.779516 0.376341
vt 0.827799 0.312685
vt 0.759255 0.459505
vt 0.753035 0.374157
vt 0.785355 0.459054
vt 0.833430 0.462198
vt 0.753795 0.315293
vt 0.779860 0.312831
vt 0.927507 0.091952
vt 0.942209 0.123765
vt 0.918459 0.202156
vt 0.166343 0.183994
vt 0.147358 0.240813
vt 0.161753 0.240071
vt 0.143057 0.670881
vt 0.156677 0.702961
vt 0.132488 0.779693
vt 0.166343 0.183994
vt 0.147358 0.240813
vt 0.135680 0.185575
vt 0.159354 0.068904
vt 0.129011 0.080613
vt 0.162182 0.078903
vt 0.171332 0.378785
vt 0.152096 0.379776
vt 0.130796 0.070376
vt 0.142587 0.612491
vt 0.200653 0.670699
vt 0.130796 0.070376
vt 0.159354 0.068904
vt 0.926674 0.033678
vt 0.986109 0.091464
vt 0.868961 0.059121
vt 0.852385 0.092284
vt 0.852685 0.033901
vt 0.910114 0.058948
vt 0.862935 0.092255
vt 0.085259 0.637638
vt 0.067894 0.670662
vt 0.068701 0.612394
vt 0.132501 0.670873
vt 0.077400 0.670716
vt 0.152963 0.405220
vt 0.171506 0.381302
vt 0.152182 0.382298
vt 0.152963 0.405220
vt 0.173086 0.404183
vt 0.162233 0.079084
vt 0.135002 0.126460
vt 0.128978 0.080799
vt 0.160938 0.125123
vt 0.160938 0.125123
vt 0.077159 0.780910
vt 0.081038 0.793653
vt 0.863165 0.201017
vt 0.918005 0.092021
vt 0.867562 0.215138
vt 0.839014 0.124248
vt 0.794812 0.092349
vt 0.797407 0.028406
vt 0.126395 0.637743
vt 0.173086 0.404183
vt 0.135002 0.126460
vt 0.128093 0.793814
vt 0.053071 0.702637
vt 0.009277 0.670136
vt 0.012499 0.606248
vt 0.914628 0.214914
vt 0.711628 0.047861
vt 0.024781 0.219408
vt 0.554211 0.050044
vt 0.715753 0.771428
vt 0.753035 0.635590
vt 0.756057 0.504874
vt 0.078476 0.244455
vt 0.078702 0.408958
vt 0.099980 0.083274
vt 0.097179 0.129246
vt 0.293842 0.795164
vt 0.440978 0.990720
vt 0.736274 0.531154
vt 0.215414 0.538375
vt 0.907845 0.459026
vt 0.724885 0.646565
vt 0.135680 0.185574
vt 0.161753 0.240071
vt 0.197822 0.606793
vt 0.982903 0.027545
vn 0.0000 -1.0000 0.0000
vn 0.9957 0.0264 -0.0888
vn 0.0556 -0.6188 -0.7836
vn 0.0349 -0.6357 0.7712
vn 0.0000 1.0000 0.0000
vn 0.9947 -0.0307 -0.0983
vn 0.9886 -0.0430 0.1443
vn 0.0675 0.9977 0.0000
vn 0.0000 0.0000 -1.0000
vn 0.9986 0.0537 0.0000
vn 0.0499 0.9988 0.0000
vn -0.0481 -0.9988 0.0000
vn -0.0319 -0.2435 0.9694
vn 0.0749 0.9685 0.2374
vn -0.0760 -0.9920 -0.1008
vn 0.0336 -0.2430 0.9695
vn 0.0000 0.0000 1.0000
vn -0.0685 -0.9689 -0.2379
vn -0.0375 0.1065 -0.9936
vn 0.0283 -0.0029 -0.9996
vn -0.9736 0.2199 -0.0619
vn 0.0000 0.8226 -0.5687
vn 0.9683 0.2420 0.0615
vn 0.0000 0.8226 0.5687
vn 0.0000 -0.9949 -0.1012
vn 0.0000 0.2827 0.9592
vn 0.0000 -0.0430 0.9991
vn 0.9997 -0.0101 0.0221
vn 0.0000 -0.0430 -0.9991
vn -0.9997 -0.0101 -0.0221
vn -0.9784 -0.0472 -0.2013
vn -0.9852 -0.1713 0.0000
vn 0.9791 -0.0482 0.1976
vn 0.9852 -0.1713 0.0000
vn 0.0000 0.2827 -0.9592
vn 0.0000 -0.5388 0.8425
vn 0.9954 0.0716 -0.0637
vn 0.9981 0.0624 0.0000
vn -0.9958 0.0656 0.0638
vn -0.9984 0.0563 0.0000
vn -0.9736 0.2199 0.0619
vn -0.9997 -0.0101 0.0221
vn 0.9784 -0.0472 -0.2013
vn 0.0000 -0.5246 -0.8514
vn 0.9953 0.0725 0.0637
vn 0.9683 0.2420 -0.0615
vn 0.0000 -0.9949 0.1012
vn 0.9997 -0.0101 -0.0221
vn -0.9791 -0.0482 0.1976
vn -0.9959 0.0648 -0.0638
vn -0.9957 0.0264 -0.0888
vn -0.0572 -0.6733 -0.7371
vn -0.0349 -0.6357 0.7712
vn -0.9934 -0.0709 -0.0898
vn -0.9904 0.0413 0.1322
vn -0.0675 0.9977 0.0000
vn -0.9986 0.0537 0.0000
vn -0.0499 0.9988 0.0000
vn 0.0481 -0.9988 0.0000
vn -0.0288 -0.0030 0.9996
vn 0.0765 0.9920 0.1008
vn -0.0742 -0.9662 -0.2470
vn -0.0336 -0.2430 0.9695
vn 0.0685 -0.9689 -0.2379
vn 0.0375 0.1065 -0.9936
vn 0.0271 0.2431 -0.9696
vn 0.9337 0.0862 -0.3476
vn -0.9170 0.0980 0.3867
vn -0.9966 -0.0520 0.0642
vn 0.9965 -0.0528 -0.0642
vn -0.9954 0.0716 -0.0637
vn -0.9981 0.0624 0.0000
vn 0.9958 0.0656 0.0638
vn 0.9984 0.0563 0.0000
vn 0.9736 0.2199 0.0619
vn -0.9811 -0.1826 0.0636
vn -0.9542 0.0691 0.2910
vn -0.9683 0.2420 -0.0615
vn 0.9806 -0.1855 -0.0636
vn 0.9606 0.0630 -0.2706
vn 0.9945 0.0668 -0.0811
vn 0.0572 -0.6733 -0.7371
vn 0.0367 -0.6699 0.7415
vn 0.9934 -0.0709 -0.0898
vn 0.9904 0.0413 0.1322
vn -0.0575 0.9675 0.2462
vn 0.0288 -0.0030 0.9996
vn -0.0765 0.9920 0.1008
vn 0.0742 -0.9662 -0.2470
vn -0.0356 -0.1065 0.9937
vn 0.0609 -0.9981 0.0000
vn 0.0376 0.2435 -0.9692
vn -0.0271 0.2431 -0.9696
vn -0.9337 0.0862 -0.3476
vn 0.9170 0.0980 0.3867
vn 0.9966 -0.0520 0.0642
vn -0.9965 -0.0528 -0.0642
vn 0.9542 0.0691 -0.2910
vn -0.9606 0.0630 0.2705
vn -0.9288 0.0898 0.3595
vn 0.9811 -0.1826 0.0636
vn 0.9542 0.0691 0.2910
vn 0.9227 0.0941 -0.3740
vn -0.9806 -0.1855 -0.0636
vn -0.9606 0.0630 -0.2706
vn -0.9945 0.0668 -0.0811
vn -0.0556 -0.6188 -0.7836
vn -0.0367 -0.6699 0.7415
vn -0.9947 -0.0307 -0.0983
vn -0.9886 -0.0430 0.1443
vn 0.0575 0.9675 0.2462
vn 0.0319 -0.2435 0.9694
vn -0.0749 0.9685 0.2374
vn 0.0760 -0.9920 -0.1008
vn 0.0356 -0.1065 0.9937
vn -0.0609 -0.9981 0.0000
vn -0.0376 0.2435 -0.9692
vn -0.0283 -0.0029 -0.9996
vn 0.9736 0.2199 -0.0619
vn -0.9683 0.2420 0.0615
vn -0.9542 0.0691 -0.2910
vn 0.9606 0.0630 0.2705
vn 0.9288 0.0898 0.3595
vn -0.9953 0.0725 0.0637
vn -0.9227 0.0941 -0.3740
vn 0.9959 0.0648 -0.0638
usemtl Mesa_Difusse
s off
f 11/1/1 7/2/1 14/3/1
f 10/4/2 4/5/2 11/6/2
f 5/7/3 1/8/3 2/9/3
f 3/10/4 7/11/4 4/5/4
f 10/12/5 6/13/5 3/14/5
f 1/15/5 15/16/5 9/17/5
f 15/16/5 10/12/5 9/17/5
f 2/9/6 9/18/6 12/19/6
f 12/19/7 10/4/7 11/6/7
f 2/20/1 13/21/1 5/22/1
f 13/21/1 11/1/1 14/3/1
f 20/23/8 31/24/8 19/25/8
f 29/26/9 24/27/9 23/28/9
f 24/29/10 21/30/10 23/31/10
f 19/25/11 22/32/11 24/27/11
f 23/28/12 17/33/12 29/26/12
f 17/33/13 32/34/13 18/35/13
f 20/23/14 28/36/14 32/37/14
f 25/38/15 18/35/15 27/39/15
f 32/34/16 27/39/16 18/35/16
f 22/40/17 17/33/17 21/41/17
f 29/26/18 18/35/18 30/42/18
f 26/43/19 30/42/19 25/38/19
f 30/42/20 19/25/20 29/26/20
f 65/44/21 36/45/21 42/46/21
f 42/47/22 40/48/22 43/49/22
f 59/50/23 38/51/23 44/52/23
f 38/53/24 41/54/24 44/55/24
f 61/56/25 33/57/25 57/58/25
f 60/59/26 38/53/26 58/60/26
f 37/61/27 41/54/27 33/57/27
f 61/62/28 44/52/28 37/63/28
f 42/47/29 39/64/29 35/65/29
f 66/66/30 42/46/30 35/67/30
f 62/68/31 46/69/31 57/70/31
f 55/71/32 45/72/32 46/69/32
f 68/73/33 50/74/33 64/75/33
f 50/74/34 54/76/34 49/77/34
f 63/78/35 51/79/35 67/80/35
f 48/81/5 52/82/5 51/79/5
f 66/83/36 50/84/36 45/85/36
f 50/84/1 46/86/1 45/85/1
f 67/87/37 53/88/37 68/73/37
f 51/89/38 54/76/38 53/88/38
f 60/90/39 55/71/39 62/68/39
f 47/91/40 56/92/40 55/71/40
f 34/93/41 62/68/41 41/94/41
f 41/94/42 57/70/42 33/95/42
f 49/77/43 59/50/43 61/62/43
f 52/82/26 60/59/26 58/60/26
f 46/86/44 61/56/44 57/58/44
f 54/76/45 58/96/45 59/50/45
f 40/97/46 68/73/46 43/98/46
f 39/64/47 66/83/47 35/65/47
f 36/99/35 67/80/35 40/48/35
f 43/98/48 64/75/48 39/100/48
f 45/72/49 65/44/49 66/66/49
f 56/92/50 63/101/50 65/44/50
f 7/2/1 75/102/1 14/3/1
f 72/103/51 74/104/51 75/105/51
f 5/7/52 69/106/52 8/107/52
f 7/11/53 71/108/53 72/103/53
f 74/109/5 6/13/5 16/110/5
f 69/111/5 15/16/5 8/112/5
f 74/109/5 15/16/5 73/113/5
f 70/114/54 73/115/54 69/106/54
f 76/116/55 74/104/55 73/115/55
f 13/21/1 70/117/1 5/22/1
f 13/21/1 75/102/1 76/118/1
f 87/119/56 80/120/56 79/121/56
f 85/122/9 84/123/9 79/121/9
f 81/124/57 84/125/57 83/126/57
f 82/127/58 79/121/58 84/123/58
f 77/128/59 83/129/59 85/122/59
f 77/128/60 88/130/60 87/131/60
f 80/120/61 28/36/61 26/43/61
f 25/38/62 78/132/62 86/133/62
f 27/39/63 88/130/63 78/132/63
f 77/128/17 82/134/17 81/135/17
f 78/132/64 85/122/64 86/133/64
f 86/133/65 26/43/65 25/38/65
f 86/133/66 79/121/66 80/120/66
f 121/136/67 92/137/67 119/138/67
f 98/139/22 96/140/22 92/141/22
f 115/142/68 94/143/68 114/144/68
f 97/145/24 94/146/24 100/147/24
f 89/148/25 117/149/25 113/150/25
f 94/146/26 116/151/26 114/152/26
f 93/153/27 97/145/27 100/147/27
f 117/154/69 100/155/69 115/142/69
f 95/156/29 98/139/29 91/157/29
f 122/158/70 98/159/70 121/136/70
f 102/160/43 118/161/43 113/162/43
f 101/163/34 111/164/34 102/160/34
f 106/165/49 124/166/49 120/167/49
f 106/165/32 110/168/32 109/169/32
f 107/170/35 119/171/35 123/172/35
f 108/173/5 104/174/5 107/170/5
f 122/175/36 106/176/36 120/177/36
f 102/178/1 106/176/1 101/179/1
f 109/169/71 123/180/71 124/166/71
f 110/168/72 107/181/72 109/169/72
f 111/164/73 116/182/73 118/161/73
f 112/183/74 103/184/74 111/164/74
f 118/161/75 90/185/75 97/186/75
f 113/162/28 97/186/28 89/187/28
f 105/188/76 115/142/76 110/168/76
f 108/173/26 116/151/26 103/189/26
f 113/150/44 105/190/44 102/178/44
f 110/168/77 114/144/77 108/191/77
f 124/166/78 96/192/78 99/193/78
f 122/175/47 95/156/47 91/157/47
f 123/172/35 92/141/35 96/140/35
f 120/167/30 99/193/30 95/194/30
f 101/163/79 121/136/79 112/183/79
f 112/183/80 119/138/80 104/195/80
f 11/1/1 4/196/1 7/2/1
f 10/4/81 3/10/81 4/5/81
f 5/7/82 8/107/82 1/8/82
f 3/10/83 6/197/83 7/11/83
f 10/12/5 16/110/5 6/13/5
f 1/15/5 8/112/5 15/16/5
f 15/16/5 16/110/5 10/12/5
f 2/9/84 1/8/84 9/18/84
f 12/19/85 9/18/85 10/4/85
f 2/20/1 12/198/1 13/21/1
f 13/21/1 12/198/1 11/1/1
f 20/23/86 32/37/86 31/24/86
f 29/26/9 19/25/9 24/27/9
f 24/29/10 22/199/10 21/30/10
f 19/25/11 31/24/11 22/32/11
f 23/28/12 21/41/12 17/33/12
f 17/33/87 31/200/87 32/34/87
f 20/23/88 26/43/88 28/36/88
f 25/38/89 30/42/89 18/35/89
f 32/34/90 28/201/90 27/39/90
f 22/40/17 31/200/17 17/33/17
f 29/26/91 17/33/91 18/35/91
f 26/43/92 20/23/92 30/42/92
f 30/42/93 20/23/93 19/25/93
f 65/44/94 63/101/94 36/45/94
f 42/47/22 36/99/22 40/48/22
f 59/50/95 58/96/95 38/51/95
f 38/53/24 34/202/24 41/54/24
f 61/56/25 37/61/25 33/57/25
f 60/59/26 34/202/26 38/53/26
f 37/61/27 44/55/27 41/54/27
f 61/62/96 59/50/96 44/52/96
f 42/47/29 43/49/29 39/64/29
f 66/66/97 65/44/97 42/46/97
f 62/68/76 55/71/76 46/69/76
f 55/71/32 56/92/32 45/72/32
f 68/73/79 53/88/79 50/74/79
f 50/74/34 53/88/34 54/76/34
f 63/78/35 48/81/35 51/79/35
f 48/81/5 47/203/5 52/82/5
f 66/83/36 64/204/36 50/84/36
f 50/84/1 49/205/1 46/86/1
f 67/87/98 51/89/98 53/88/98
f 51/89/38 52/206/38 54/76/38
f 60/90/99 47/91/99 55/71/99
f 47/91/40 48/207/40 56/92/40
f 34/93/100 60/90/100 62/68/100
f 41/94/69 62/68/69 57/70/69
f 49/77/101 54/76/101 59/50/101
f 52/82/26 47/203/26 60/59/26
f 46/86/44 49/205/44 61/56/44
f 54/76/102 52/206/102 58/96/102
f 40/97/103 67/87/103 68/73/103
f 39/64/47 64/204/47 66/83/47
f 36/99/35 63/78/35 67/80/35
f 43/98/70 68/73/70 64/75/70
f 45/72/104 56/92/104 65/44/104
f 56/92/105 48/207/105 63/101/105
f 7/2/1 72/208/1 75/102/1
f 72/103/106 71/108/106 74/104/106
f 5/7/107 70/114/107 69/106/107
f 7/11/108 6/197/108 71/108/108
f 74/109/5 71/209/5 6/13/5
f 69/111/5 73/113/5 15/16/5
f 74/109/5 16/110/5 15/16/5
f 70/114/109 76/116/109 73/115/109
f 76/116/110 75/105/110 74/104/110
f 13/21/1 76/118/1 70/117/1
f 13/21/1 14/3/1 75/102/1
f 87/119/111 88/210/111 80/120/111
f 85/122/9 83/129/9 84/123/9
f 81/124/57 82/211/57 84/125/57
f 82/127/58 87/119/58 79/121/58
f 77/128/59 81/135/59 83/129/59
f 77/128/112 78/132/112 88/130/112
f 80/120/113 88/210/113 28/36/113
f 25/38/114 27/39/114 78/132/114
f 27/39/115 28/201/115 88/130/115
f 77/128/17 87/131/17 82/134/17
f 78/132/116 77/128/116 85/122/116
f 86/133/117 80/120/117 26/43/117
f 86/133/118 85/122/118 79/121/118
f 121/136/119 98/159/119 92/137/119
f 98/139/22 99/212/22 96/140/22
f 115/142/120 100/155/120 94/143/120
f 97/145/24 90/213/24 94/146/24
f 89/148/25 93/153/25 117/149/25
f 94/146/26 90/213/26 116/151/26
f 93/153/27 89/148/27 97/145/27
f 117/154/42 93/214/42 100/155/42
f 95/156/29 99/212/29 98/139/29
f 122/158/48 91/215/48 98/159/48
f 102/160/101 111/164/101 118/161/101
f 101/163/34 112/183/34 111/164/34
f 106/165/104 109/169/104 124/166/104
f 106/165/32 105/188/32 110/168/32
f 107/170/35 104/174/35 119/171/35
f 108/173/5 103/189/5 104/174/5
f 122/175/36 101/179/36 106/176/36
f 102/178/1 105/190/1 106/176/1
f 109/169/121 107/181/121 123/180/121
f 110/168/72 108/191/72 107/181/72
f 111/164/122 103/184/122 116/182/122
f 112/183/74 104/195/74 103/184/74
f 118/161/123 116/182/123 90/185/123
f 113/162/96 118/161/96 97/186/96
f 105/188/31 117/154/31 115/142/31
f 108/173/26 114/152/26 116/151/26
f 113/150/44 117/149/44 105/190/44
f 110/168/124 115/142/124 114/144/124
f 124/166/125 123/180/125 96/192/125
f 122/175/47 120/177/47 95/156/47
f 123/172/35 119/171/35 92/141/35
f 120/167/97 124/166/97 99/193/97
f 101/163/33 122/158/33 121/136/33
f 112/183/126 121/136/126 119/138/126
