# Blender v3.2.2 OBJ File: 'riny.blend'
# www.blender.org
mtllib riny.mtl
o Plane
v -1.000000 -1.848791 -1.000000
v 1.000000 -1.848791 -1.000000
v -1.000000 1.848791 -1.000000
v 1.000000 1.848791 -1.000000
vt 0.000000 0.000000
vt 1.000000 0.000000
vt 1.000000 1.000000
vt 0.000000 1.000000
vn 0.0000 -0.0000 1.0000
usemtl Material.001
s off
f 1/1/1 2/2/1 4/3/1 3/4/1
o Plane.001
v 0.010901 0.973761 0.000000
v 0.355526 0.934386 0.000000
v 0.687601 0.735459 0.000000
v -0.482157 0.800354 0.000000
v -0.546679 0.730671 0.000000
v -0.513128 0.624856 -0.000000
v -0.562164 0.511298 -0.000000
v -0.499793 0.289774 -0.000000
v -0.514848 0.550011 -0.000000
v 0.212446 0.218693 -0.000000
v 0.371948 0.322058 -0.000000
v 0.410546 0.198838 -0.000000
v 0.291482 -1.368875 -0.000000
v 0.366594 -1.413585 -0.000000
v 0.228888 -1.050540 -0.000000
v 0.280751 -1.247264 -0.000000
v 0.364806 -1.293762 -0.000000
v 0.395209 -1.592425 -0.000000
v 0.377325 -1.511947 -0.000000
v 0.280751 -1.504793 -0.000000
v 0.312942 -1.701517 -0.000000
v 0.259290 -1.621039 -0.000000
v -0.273911 0.278170 -0.000000
v -0.185253 0.248617 -0.000000
v -0.211111 0.377910 -0.000000
v 0.014228 0.717767 0.000000
v 0.014228 0.765790 0.000000
v -0.067042 0.835978 0.000000
v 0.165314 0.836987 0.000000
v 0.103850 0.842979 0.000000
v 0.106581 0.721461 0.000000
v 0.317144 0.817507 0.000000
v 0.298674 0.614332 -0.000000
v -0.390107 0.229554 -0.000000
v -0.430970 0.504846 -0.000000
v -0.440085 0.593659 -0.000000
v -0.306229 0.573669 -0.000000
v 0.377325 -1.004042 -0.000000
v 0.343345 -0.900315 -0.000000
v 0.210799 -0.941302 -0.000000
v 0.334403 -0.785857 -0.000000
v 0.352287 -0.676765 -0.000000
v 0.380356 -0.352668 -0.000000
v 0.149729 -0.382266 -0.000000
v -0.152041 -0.304779 -0.000000
v 0.148410 -0.413871 -0.000000
v -0.118062 -0.435332 -0.000000
v -0.078717 -0.581980 -0.000000
v -0.033538 -0.714321 -0.000000
v 0.172978 -0.767651 -0.000000
v -0.008969 -0.812683 -0.000000
v -0.050102 -0.828779 -0.000000
v 0.103671 -0.872228 -0.000000
v 0.071509 -0.939660 -0.000000
v 0.021433 -1.012984 -0.000000
v -0.046526 -0.934294 -0.000000
v -0.420301 -0.272587 -0.000000
v -0.291536 -0.056191 -0.000000
v -0.388110 0.090457 -0.000000
v -0.141311 0.076150 -0.000000
v -0.228942 0.160205 -0.000000
v -0.189597 0.172724 -0.000000
v -0.323727 -0.286895 -0.000000
v -0.060982 0.142768 -0.000000
v -0.105543 -0.306567 -0.000000
v -0.281204 0.037236 -0.000000
v 0.029701 -0.351306 -0.000000
v -0.196782 0.118573 -0.000000
v 0.229064 -0.371741 -0.000000
v -0.178547 -0.411119 -0.000000
v 0.388055 -0.336970 -0.000000
v 0.327249 0.163782 -0.000000
v 0.595509 -0.283318 -0.000000
v 0.404151 -0.381680 -0.000000
v -0.112597 0.197562 -0.000000
v 0.024017 0.242272 -0.000000
v 0.071210 0.244756 -0.000000
v 0.164658 0.345145 -0.000000
v 0.077685 0.170293 -0.000000
v 0.151937 0.277047 -0.000000
v -0.312286 -0.363362 -0.000000
v 0.245082 0.360801 -0.000000
v 0.332018 0.270837 -0.000000
v 0.348164 0.202530 -0.000000
v 0.386664 0.260901 -0.000000
v 0.359627 0.120596 -0.000000
v 0.308679 0.274347 -0.000000
v 0.210146 0.444446 -0.000000
v 0.360538 0.395826 -0.000000
v 0.339795 0.474525 -0.000000
v 0.375059 0.587578 -0.000000
v 0.222592 0.533645 -0.000000
v 0.419658 0.371843 -0.000000
v 0.271340 0.582393 -0.000000
v -0.058438 0.374405 -0.000000
v -0.003339 0.435078 -0.000000
v 0.002623 0.336545 -0.000000
v 0.015202 0.480198 -0.000000
v 0.194364 0.441574 -0.000000
v -0.016951 0.606736 -0.000000
v 0.157297 0.533095 -0.000000
v 0.019474 0.611543 -0.000000
v -0.088594 0.731886 0.000000
v 0.126931 0.582610 -0.000000
v 0.141850 0.617614 -0.000000
v 0.162859 0.672841 -0.000000
v 0.189556 0.514023 -0.000000
v -0.374091 0.666831 -0.000000
v -0.334197 0.588124 -0.000000
v -0.369030 0.628727 -0.000000
v -0.369030 0.721638 0.000000
v -0.380652 0.765513 0.000000
v -0.115505 0.877162 0.000000
v -0.412904 0.827453 0.000000
v 0.535940 0.453878 -0.000000
v 0.516534 0.531054 -0.000000
v 0.573004 0.295610 -0.000000
v 0.550558 0.595321 -0.000000
v 0.714006 0.302171 -0.000000
v 0.701115 0.590663 -0.000000
v 0.518188 0.725764 0.000000
v 0.486036 0.811759 0.000000
v 0.673197 0.890565 0.000000
v 0.547562 0.760613 0.000000
v 0.743707 0.872971 0.000000
v 0.774678 0.798126 0.000000
v 0.669335 0.663921 -0.000000
v 0.187146 0.750305 0.000000
v 0.077487 0.903080 0.000000
v -0.108335 0.936631 0.000000
v 0.226073 0.955352 0.000000
v -0.134144 1.034704 0.000000
v -0.110344 1.241609 0.000000
v 0.101231 1.100223 0.000000
v 0.268524 1.136828 0.000000
v 0.352784 1.053201 0.000000
v -0.192931 1.185657 0.000000
v -0.212633 0.965730 0.000000
v -0.273852 1.002489 0.000000
v -0.360544 0.928951 0.000000
v -0.534178 0.934051 0.000000
v -0.645155 0.954697 0.000000
v -0.761294 0.957278 0.000000
v -0.877246 0.987564 0.000000
v -0.825815 0.892757 0.000000
v -0.891176 0.843378 0.000000
v -0.849043 0.805008 0.000000
v -0.821865 0.734578 0.000000
v -0.736852 0.753421 0.000000
v -0.725379 0.707152 0.000000
v -0.676280 0.814990 0.000000
v -0.663221 0.763869 0.000000
v -0.889435 1.054729 0.000000
v -0.732904 1.179233 0.000000
v -0.557406 1.256658 0.000000
v -0.405135 1.282467 0.000000
v -0.295899 1.073510 0.000000
v -0.327429 1.225564 0.000000
v -0.101910 1.090911 0.000000
v -0.863564 1.145463 0.000000
v -0.232248 1.352835 0.000000
v -0.038838 1.129668 0.000000
v -0.326061 1.489776 0.000000
v -0.462815 1.438096 0.000000
v -0.804984 1.337038 0.000000
v -0.678084 1.420061 0.000000
v -0.550534 1.495932 0.000000
v -0.232715 1.387255 0.000000
v -0.002302 0.375949 -0.000000
v 0.043501 1.494005 0.000000
v 0.553021 0.656889 -0.000000
v 0.113619 1.491517 0.000000
v 0.676723 0.698400 0.000000
v 0.222015 1.475970 0.000000
v 0.773796 0.728070 0.000000
v 0.284328 1.474975 0.000000
v 0.260552 1.080952 0.000000
v 0.447377 1.380185 0.000000
v 0.213760 1.016921 0.000000
v 0.620022 1.199089 0.000000
v -0.026040 1.091972 0.000000
v 0.872656 1.167746 0.000000
v 0.598685 1.130078 0.000000
v 0.547203 1.039866 0.000000
v -0.043279 1.032866 0.000000
v 0.443515 0.954716 0.000000
v 0.462590 1.050526 0.000000
v 0.057240 1.245508 0.000000
v -0.160013 0.739274 0.000000
v 0.048228 1.158648 0.000000
v 0.322120 0.979980 0.000000
v 0.121083 1.179917 0.000000
v 0.317194 1.051399 0.000000
v 0.180411 1.237319 0.000000
v 0.067544 1.050105 0.000000
v 0.227021 1.167013 0.000000
v 0.030603 1.109211 0.000000
v 0.438982 1.153580 0.000000
v 0.436226 0.882433 0.000000
v 0.754581 1.050308 0.000000
v 0.607845 0.809597 0.000000
v -0.063184 1.470806 0.000000
v -0.121302 1.583588 0.000000
v -0.353517 1.695405 0.000000
v -0.219437 1.674758 0.000000
v 0.310473 1.544079 0.000000
v 0.484218 1.439918 0.000000
v 0.390716 1.634409 0.000000
v 0.415816 1.377659 0.000000
v 0.547203 1.557928 0.000000
v 0.529137 1.685081 0.000000
v 0.786915 1.278641 0.000000
v 0.724792 1.356267 0.000000
v 0.615878 1.409602 0.000000
v 0.545422 1.324315 0.000000
v 0.643659 0.796847 0.000000
v 0.823610 0.905934 0.000000
v 0.679794 0.769937 0.000000
v 0.197752 0.888859 0.000000
v -0.025654 1.228425 0.000000
l 101 173
l 122 175
l 131 177
l 7 179
l 107 193
l 197 195
l 181 197
l 183 181
l 135 183
l 201 199
l 185 201
l 189 185
l 5 189
