# Blender v2.93.4 OBJ File: 'Shrek2D.blend'
# www.blender.org
mtllib Shrek2D.mtl
o Plane
v 0.139608 0.000000 1.618768
v 0.206991 0.000000 1.637696
v 0.284217 0.000000 1.605897
v 0.730914 0.000000 1.480216
v 0.735457 0.000000 1.379520
v 0.700630 0.000000 1.468102
v 0.646117 0.000000 1.490059
v 0.354628 0.000000 1.540028
v 0.512865 0.000000 1.490816
v 0.651417 0.000000 1.535485
v 0.275131 0.000000 1.672523
v 0.387941 0.000000 1.574098
v 0.509837 0.000000 1.530186
v 0.471981 0.000000 1.632396
v 0.337644 0.000000 1.725521
v 0.181678 0.000000 1.703565
v 0.261932 0.000000 1.742178
v 0.392156 0.000000 1.763377
v 0.617776 0.000000 1.636787
v 0.739242 0.000000 1.511258
v 0.694194 0.000000 1.612968
v 0.522380 0.000000 1.742178
v 0.619206 0.000000 1.690156
v 0.176707 0.000000 1.667223
v 0.758927 0.000000 1.399205
v 0.092122 0.000000 1.637666
v 0.757837 0.000000 1.304353
v 0.831984 0.000000 1.400540
v 0.836265 0.000000 1.345539
v 0.970788 0.000000 1.465525
v 1.019370 0.000000 1.451645
v 1.030095 0.000000 1.412527
v 1.016846 0.000000 1.343125
v 0.976467 0.000000 1.326090
v 0.882458 0.000000 1.347542
v 0.893184 0.000000 1.422622
v 0.937051 0.000000 1.392793
v 0.010087 0.000000 1.572978
v 0.033249 0.000000 1.669283
v -0.004430 0.000000 1.735221
v -0.043993 0.000000 1.833186
v -0.096325 0.000000 1.828825
v -0.162830 0.000000 1.760139
v -0.155198 0.000000 1.723071
v -0.058166 0.000000 1.675100
v -0.000383 0.000000 1.612956
v -0.059851 0.000000 1.740672
v 0.677674 0.000000 1.328278
v 0.618800 0.000000 1.395874
v 0.538612 0.000000 1.413630
v 0.490152 0.000000 1.405686
v 0.595905 0.000000 1.352264
v 0.516317 0.000000 1.384971
v 0.578159 0.000000 1.411856
v 0.651688 0.000000 1.350742
v 0.598544 0.000000 1.391166
v 0.548645 0.000000 1.399381
v 0.556046 0.000000 1.368998
v 0.574989 0.000000 1.394952
v 0.579849 0.000000 1.380373
v 0.602593 0.000000 1.309981
v 0.537607 0.000000 1.339635
v 0.482086 0.000000 1.385693
v 0.098468 0.000000 1.536918
v 0.142248 0.000000 1.527755
v 0.195768 0.000000 1.537575
v 0.231611 0.000000 1.532174
v 0.260089 0.000000 1.520390
v 0.306735 0.000000 1.468834
v 0.244797 0.000000 1.477319
v 0.207465 0.000000 1.492591
v 0.174375 0.000000 1.507015
v 0.257536 0.000000 1.498589
v 0.237868 0.000000 1.501783
v 0.224434 0.000000 1.518045
v 0.203930 0.000000 1.518045
v 0.383665 0.000000 1.411995
v 0.290368 0.000000 1.452467
v 0.196189 0.000000 1.455861
v 0.142736 0.000000 1.473679
v 0.115586 0.000000 1.501678
v 0.738289 0.000000 1.158962
v 0.676996 0.000000 1.027214
v 0.527532 0.000000 0.864514
v 0.280953 0.000000 0.747370
v -0.156052 0.000000 0.950038
v -0.178044 0.000000 1.257926
v -0.076636 0.000000 1.463184
v 0.006494 0.000000 0.803669
v 0.476520 0.000000 1.358237
v 0.450862 0.000000 1.277600
v 0.322576 0.000000 1.267825
v 0.232164 0.000000 1.352128
v 0.270039 0.000000 1.415660
v 0.474076 0.000000 1.256829
v 0.188181 0.000000 1.343575
v 0.526613 0.000000 1.313031
v 0.194289 0.000000 1.409551
v 0.162523 0.000000 1.358237
v 0.499733 0.000000 1.234837
v 0.595185 0.000000 1.133023
v 0.531652 0.000000 1.093926
v 0.000027 0.000000 1.338688
v 0.025684 0.000000 1.284930
v 0.395845 0.000000 1.112687
v 0.266826 0.000000 1.148023
v 0.163511 0.000000 1.197641
v 0.456988 0.000000 1.053879
v 0.424747 0.000000 1.072715
v 0.401839 0.000000 1.060836
v 0.383173 0.000000 1.083745
v 0.339901 0.000000 1.097320
v 0.258450 0.000000 1.114289
v 0.178695 0.000000 1.131258
v 0.177846 0.000000 1.153318
v 0.126090 0.000000 1.169438
v 0.082819 0.000000 1.180468
v 0.079425 0.000000 1.220346
v 0.112515 0.000000 1.230527
v 0.454867 0.000000 1.103825
v 0.361690 0.000000 1.027000
v 0.290827 0.000000 1.025778
v 0.228516 0.000000 1.045326
v 0.175980 0.000000 1.061210
v 0.090048 0.000000 1.138419
v 0.728018 0.000000 0.925171
v 0.562719 0.000000 0.739599
v 0.277435 0.000000 0.678755
v 0.122611 0.000000 0.715702
v -0.170126 0.000000 0.833921
v -0.283605 0.000000 1.192830
v -0.368934 0.000000 1.050322
v 0.704853 0.000000 1.062401
v 0.764964 0.000000 1.016951
v 0.841203 0.000000 1.036011
v 0.920374 0.000000 1.003756
v 0.988778 0.000000 0.740274
v 0.930508 0.000000 0.535063
v 0.935575 0.000000 0.248780
v 0.494750 0.000000 0.317184
v 0.395945 0.000000 0.517328
v 0.384216 0.000000 0.571575
v 0.482446 0.000000 0.630220
v 0.612932 0.000000 0.691798
v 0.756613 0.000000 0.856005
v 0.728756 0.000000 0.982092
v 0.312131 0.000000 0.561801
v 0.269369 0.000000 0.587458
v 0.241268 0.000000 0.577684
v 0.126421 0.000000 0.608228
v 0.342186 0.000000 0.525881
v 0.386170 0.000000 0.478231
v 0.344630 0.000000 0.468457
v 0.315307 0.000000 0.518550
v 0.274989 0.000000 0.509998
v 0.228561 0.000000 0.442800
v 0.191908 0.000000 0.461127
v 0.243223 0.000000 0.536877
v 0.108827 0.000000 0.557647
v -0.164929 0.000000 0.756015
v -0.359162 0.000000 0.965026
v -0.405609 0.000000 1.074810
v -0.344383 0.000000 1.184594
v -0.240335 0.000000 1.238739
v -0.397130 0.000000 1.185796
v -0.496908 0.000000 1.152197
v -0.626962 0.000000 1.208120
v -0.663166 0.000000 1.118417
v -0.685510 0.000000 0.858971
v -0.653255 0.000000 0.662509
v -0.681111 0.000000 0.515896
v -0.801334 0.000000 0.397139
v -0.808665 0.000000 0.313570
v 0.002106 0.000000 0.359020
v -0.414275 0.000000 0.369283
v 0.958376 0.000000 0.923529
v 1.093495 0.000000 0.820079
v 1.370066 0.000000 0.385165
v 1.408068 0.000000 0.133929
v 1.097717 0.000000 -0.307318
v 1.028047 0.000000 -0.313652
v 0.878149 0.000000 -0.132086
v 0.874002 0.000000 0.066220
v 0.866671 0.000000 0.248020
v 0.873927 0.000000 -0.442437
v 0.814813 0.000000 -0.250315
v 0.646995 0.000000 -0.359761
v 0.304064 0.000000 -0.436373
v 0.063375 0.000000 -0.431744
v -0.385447 0.000000 -0.319631
v -0.775805 0.000000 -0.108035
v -0.801140 0.000000 0.128423
v -0.757441 0.000000 0.314540
v -0.738290 0.000000 0.505633
v -0.859979 0.000000 0.452852
v -0.889302 0.000000 0.388342
v -0.811597 0.000000 0.067260
v 0.278496 0.000000 0.337954
v -0.838398 0.000000 1.063525
v -1.226864 0.000000 0.753174
v -1.423208 0.000000 0.461825
v -1.423208 0.000000 0.263369
v -1.296535 0.000000 -0.025869
v -1.300757 0.000000 -0.084984
v -0.823619 0.000000 -0.002646
v -1.082304 0.000000 -0.073255
v 0.893984 0.000000 -0.630043
v 0.845425 0.000000 -0.670156
v 0.402067 0.000000 -0.830610
v 0.076938 0.000000 -0.879168
v -0.165853 0.000000 -0.834832
v -0.704217 0.000000 -0.691268
v 0.685126 0.000000 -0.402076
v 0.315379 0.000000 -0.529004
v 0.039449 0.000000 -0.529004
v -0.429632 0.000000 -0.402076
v -0.752470 0.000000 -0.211685
v -0.811830 0.000000 -0.580896
v -0.789755 0.000000 -0.269096
v -0.817348 0.000000 -0.344976
v -0.999002 0.000000 -0.370270
v -1.132368 0.000000 -0.377168
v -1.201351 0.000000 -0.326581
v -1.277232 0.000000 -0.331180
v -1.286429 0.000000 -0.239203
v -1.254237 0.000000 -0.108136
v 0.847725 0.000000 -0.815019
v 0.804036 0.000000 -1.104746
v 0.758048 0.000000 -1.254208
v 0.758559 0.000000 -1.376460
v 0.633879 0.000000 -1.470353
v 0.479176 0.000000 -1.451958
v 0.470620 0.000000 -1.327789
v 0.397039 0.000000 -1.134638
v 0.410836 0.000000 -0.989775
v 0.447626 0.000000 -0.904697
v 0.830415 0.000000 -1.347717
v 0.846383 0.000000 -1.416381
v 0.808060 0.000000 -1.416381
v 0.860755 0.000000 -1.465882
v 0.844787 0.000000 -1.496221
v 1.101402 0.000000 -1.650742
v 1.134513 0.000000 -1.697650
v 1.112439 0.000000 -1.728003
v 0.742692 0.000000 -1.747318
v 0.629561 0.000000 -1.705928
v 0.425373 0.000000 -1.683854
v 0.394767 0.000000 -1.630627
v 0.449325 0.000000 -1.486913
v 0.424042 0.000000 -1.480260
v 0.436018 0.000000 -1.441670
v 0.414727 0.000000 -1.420379
v 0.476439 0.000000 -1.365821
v -0.204177 0.000000 -0.976629
v -0.188848 0.000000 -1.135672
v -0.227171 0.000000 -1.256392
v -0.307651 0.000000 -1.417351
v -0.648648 0.000000 -0.867557
v -0.633318 0.000000 -0.926959
v -0.673558 0.000000 -1.105164
v -0.629486 0.000000 -1.239296
v -0.608408 0.000000 -1.304446
v -0.612240 0.000000 -1.371513
v -0.631402 0.000000 -1.396423
v -0.535593 0.000000 -1.459657
v -0.531761 0.000000 -1.444328
v -0.457029 0.000000 -1.486484
v -0.338226 0.000000 -1.469238
v -0.264537 0.000000 -1.431723
v -0.254956 0.000000 -1.462062
v -0.322022 0.000000 -1.530725
v -0.326813 0.000000 -1.612163
v -0.286892 0.000000 -1.680826
v -0.275714 0.000000 -1.778232
v -0.322022 0.000000 -1.810168
v -0.622224 0.000000 -1.829330
v -0.833004 0.000000 -1.791007
v -0.839391 0.000000 -1.754280
v -0.751566 0.000000 -1.674439
v -0.718033 0.000000 -1.589808
v -0.682903 0.000000 -1.492402
v -0.692484 0.000000 -1.439707
v -0.749969 0.000000 -1.436513
v -0.650967 0.000000 -1.375834
vt 0.000000 0.000000
vt 0.000000 0.000000
vt 0.000000 0.000000
vt 0.000000 0.000000
vt 0.000000 0.000000
vn -0.0000 -1.0000 0.0000
usemtl None
s off
f 22/1/1 19/2/1 23/3/1
f 22/1/1 18/4/1 15/5/1
f 22/1/1 15/5/1 19/2/1
l 7 10
l 8 3
l 5 4
l 6 5
l 7 6
l 9 7
l 12 8
l 2 1
l 3 2
l 13 9
l 12 13
l 11 15
l 11 12
l 14 12
l 10 13
l 10 20
l 15 17
l 11 16
l 14 10
l 14 11
l 14 13
l 16 15
l 17 16
l 14 15
l 14 19
l 9 10
l 6 10
l 4 6
l 18 17
l 4 10
l 4 20
l 5 20
l 19 21
l 10 19
l 20 19
l 23 21
l 21 20
l 1 24
l 16 24
l 11 24
l 3 11
l 8 11
l 2 24
l 2 11
l 1 16
l 8 9
l 8 13
l 5 25
l 20 25
l 1 26
l 16 26
l 5 7
l 5 9
l 1 3
l 1 8
l 25 27
l 5 27
l 27 28
l 25 28
l 27 29
l 28 29
l 30 36
l 30 31
l 31 32
l 32 33
l 33 34
l 34 35
l 28 36
l 29 35
l 29 36
l 35 36
l 30 37
l 34 37
l 36 37
l 35 37
l 31 37
l 32 37
l 33 37
l 1 38
l 26 38
l 26 39
l 39 40
l 40 41
l 41 42
l 42 43
l 43 44
l 44 45
l 45 46
l 38 46
l 26 46
l 39 46
l 40 46
l 40 47
l 45 47
l 40 45
l 41 47
l 44 47
l 43 47
l 42 47
l 5 48
l 48 55
l 49 54
l 50 51
l 48 52
l 53 58
l 51 53
l 5 49
l 9 50
l 9 49
l 49 52
l 50 53
l 50 54
l 52 56
l 53 57
l 52 55
l 49 55
l 5 55
l 54 56
l 54 57
l 52 58
l 49 56
l 56 60
l 50 57
l 57 58
l 57 59
l 54 59
l 59 60
l 58 60
l 56 59
l 52 60
l 58 59
l 9 51
l 48 61
l 61 62
l 62 63
l 51 63
l 53 63
l 58 62
l 53 62
l 52 61
l 52 62
l 38 64
l 64 65
l 65 66
l 66 67
l 67 68
l 68 69
l 69 70
l 70 71
l 71 72
l 65 72
l 67 73
l 70 73
l 68 73
l 71 74
l 74 75
l 75 76
l 71 75
l 71 76
l 72 76
l 70 74
l 73 74
l 67 75
l 67 74
l 66 75
l 66 76
l 66 72
l 69 73
l 8 69
l 8 68
l 1 67
l 1 66
l 1 65
l 1 64
l 69 78
l 69 77
l 9 77
l 8 77
l 51 77
l 77 78
l 63 77
l 78 79
l 79 80
l 80 81
l 64 81
l 65 81
l 72 80
l 65 80
l 71 80
l 71 79
l 70 78
l 70 79
l 27 48
l 27 82
l 82 83
l 83 84
l 84 85
l 77 90
l 86 87
l 87 88
l 38 88
l 85 89
l 86 89
l 90 91
l 91 92
l 92 93
l 93 94
l 77 94
l 91 95
l 93 96
l 92 96
l 92 95
l 90 97
l 94 98
l 96 99
l 95 100
l 97 100
l 98 99
l 90 92
l 92 94
l 90 94
l 63 90
l 62 90
l 62 97
l 61 97
l 100 101
l 101 102
l 99 103
l 103 104
l 98 103
l 97 101
l 78 94
l 79 98
l 79 94
l 80 98
l 64 88
l 81 88
l 80 88
l 80 103
l 88 103
l 87 103
l 87 104
l 100 102
l 99 104
l 102 120
l 105 106
l 106 107
l 107 119
l 100 105
l 99 107
l 92 107
l 92 105
l 95 105
l 96 107
l 92 106
l 27 101
l 48 101
l 61 101
l 82 101
l 83 102
l 83 101
l 102 108
l 108 109
l 109 110
l 110 111
l 111 112
l 112 113
l 113 114
l 114 115
l 115 116
l 116 117
l 117 118
l 104 118
l 118 119
l 104 119
l 99 119
l 116 119
l 107 116
l 107 115
l 106 114
l 106 115
l 106 113
l 106 112
l 105 112
l 105 111
l 105 110
l 105 109
l 108 120
l 105 120
l 109 120
l 108 121
l 121 122
l 122 123
l 123 124
l 124 125
l 117 125
l 110 121
l 108 110
l 112 121
l 111 121
l 112 122
l 113 123
l 114 124
l 113 124
l 114 125
l 116 125
l 114 116
l 84 102
l 85 108
l 84 108
l 85 121
l 89 122
l 89 123
l 86 124
l 86 125
l 87 117
l 87 118
l 83 126
l 84 127
l 85 128
l 89 129
l 86 130
l 87 131
l 130 132
l 131 132
l 129 130
l 128 129
l 127 128
l 126 127
l 83 133
l 82 133
l 133 134
l 134 135
l 135 136
l 136 137
l 137 138
l 138 139
l 143 184
l 140 141
l 141 142
l 142 143
l 143 144
l 144 145
l 145 146
l 133 146
l 83 146
l 126 145
l 127 144
l 126 146
l 126 144
l 134 146
l 134 145
l 135 145
l 135 137
l 135 138
l 139 145
l 139 144
l 140 143
l 141 143
l 127 143
l 128 143
l 128 142
l 142 147
l 147 148
l 148 149
l 149 150
l 141 151
l 151 152
l 152 153
l 153 154
l 154 155
l 155 156
l 156 157
l 157 158
l 158 159
l 147 149
l 147 151
l 142 151
l 152 154
l 151 154
l 147 154
l 155 158
l 147 155
l 149 158
l 149 155
l 156 158
l 150 159
l 128 148
l 128 147
l 129 149
l 128 149
l 129 150
l 150 160
l 160 161
l 161 162
l 162 163
l 163 164
l 131 164
l 87 164
l 131 163
l 132 163
l 132 162
l 132 161
l 130 161
l 130 160
l 129 160
l 164 165
l 165 166
l 166 167
l 167 168
l 168 169
l 169 170
l 170 171
l 171 172
l 172 173
l 136 176
l 159 174
l 159 173
l 159 160
l 160 172
l 159 172
l 160 171
l 160 170
l 161 170
l 162 169
l 161 169
l 163 165
l 162 165
l 162 166
l 166 168
l 166 169
l 174 175
l 173 193
l 137 176
l 176 177
l 177 178
l 178 179
l 179 180
l 180 181
l 181 182
l 182 183
l 139 183
l 137 177
l 137 178
l 138 178
l 138 179
l 139 179
l 179 183
l 180 182
l 180 183
l 183 184
l 139 184
l 140 184
l 144 184
l 138 145
l 181 185
l 185 186
l 182 186
l 182 185
l 186 187
l 187 188
l 188 189
l 189 190
l 190 191
l 191 192
l 192 193
l 175 193
l 159 193
l 170 194
l 194 195
l 195 196
l 196 197
l 192 197
l 192 196
l 173 196
l 173 192
l 173 195
l 172 194
l 171 194
l 174 198
l 141 152
l 153 155
l 153 156
l 140 152
l 140 153
l 156 174
l 140 198
l 153 198
l 156 198
l 157 174
l 157 159
l 140 183
l 140 182
l 140 186
l 187 198
l 140 187
l 188 198
l 189 198
l 174 189
l 174 190
l 175 190
l 175 191
l 175 192
l 168 199
l 199 200
l 200 201
l 201 202
l 202 203
l 203 204
l 191 205
l 197 205
l 204 206
l 205 206
l 191 197
l 169 199
l 170 200
l 169 200
l 194 200
l 195 200
l 196 201
l 195 201
l 196 202
l 196 203
l 197 204
l 196 204
l 197 206
l 186 207
l 207 208
l 208 209
l 209 210
l 210 211
l 211 212
l 186 213
l 213 214
l 214 215
l 215 216
l 216 217
l 191 217
l 190 216
l 189 215
l 188 214
l 187 213
l 188 213
l 188 215
l 189 216
l 190 217
l 212 218
l 218 219
l 217 219
l 216 219
l 216 218
l 212 216
l 211 216
l 211 215
l 210 215
l 209 215
l 209 214
l 209 213
l 208 213
l 207 213
l 219 220
l 220 221
l 221 222
l 222 223
l 223 224
l 224 225
l 225 226
l 204 226
l 206 226
l 206 225
l 206 224
l 206 223
l 191 206
l 206 217
l 206 219
l 206 220
l 206 221
l 206 222
l 208 227
l 227 228
l 228 229
l 229 230
l 230 231
l 231 232
l 232 253
l 233 234
l 234 235
l 235 236
l 209 236
l 209 227
l 227 236
l 228 236
l 229 235
l 228 235
l 229 234
l 229 233
l 230 233
l 231 233
l 230 237
l 237 238
l 238 239
l 239 240
l 240 241
l 241 242
l 242 243
l 243 244
l 244 245
l 245 246
l 246 247
l 247 248
l 248 249
l 249 250
l 250 251
l 251 252
l 252 253
l 233 253
l 231 253
l 232 251
l 251 253
l 232 250
l 231 249
l 231 248
l 231 247
l 231 246
l 237 239
l 230 239
l 239 241
l 231 239
l 239 246
l 239 245
l 241 245
l 241 244
l 241 243
l 211 254
l 254 255
l 255 256
l 256 257
l 212 258
l 258 259
l 259 260
l 260 261
l 261 262
l 262 263
l 263 264
l 264 265
l 265 266
l 266 267
l 267 268
l 257 268
l 212 254
l 254 258
l 254 259
l 255 259
l 255 260
l 256 260
l 256 261
l 257 261
l 257 262
l 262 268
l 262 267
l 263 266
l 262 266
l 264 266
l 257 269
l 269 270
l 270 271
l 271 272
l 272 273
l 273 274
l 274 275
l 275 276
l 276 277
l 277 278
l 278 279
l 279 280
l 280 281
l 281 282
l 282 283
l 283 284
l 264 284
l 263 284
l 257 270
l 268 270
l 268 271
l 267 271
l 265 267
l 265 282
l 264 282
l 264 283
l 265 281
l 267 280
l 265 280
l 267 272
l 273 280
l 272 280
l 274 279
l 273 279
l 277 279
l 276 279
l 275 279
