# Blender v3.2.2 OBJ File: 'Shrek2D.blend'
# www.blender.org
mtllib Shrek2D.mtl
o Layout_Cube
v 1.489760 -1.376324 1.999215
v 1.489760 -1.376323 -1.999215
v 1.489760 -1.001720 1.999215
v 1.489760 -1.001720 -1.999215
v -1.489760 -1.376324 1.999215
v -1.489760 -1.376324 -1.999215
v -1.489760 -1.001720 1.999215
v -1.489760 -1.001720 -1.999215
vt 0.625000 0.500000
vt 0.875000 0.500000
vt 0.875000 0.750000
vt 0.625000 0.750000
vt 1.000861 1.003095
vt 1.000730 -0.005781
vt -0.000861 -0.005446
vt -0.000730 1.003429
vt 0.375000 0.000000
vt 0.625000 0.000000
vt 0.625000 0.250000
vt 0.375000 0.250000
vt 0.125000 0.500000
vt 0.375000 0.500000
vt 0.375000 0.750000
vt 0.125000 0.750000
vn -0.0000 0.0000 -1.0000
vn 0.0000 -1.0000 -0.0000
vn 1.0000 0.0000 -0.0000
vn 0.0000 0.0000 1.0000
vn -1.0000 0.0000 0.0000
vn -0.0000 1.0000 0.0000
usemtl Material
s off
f 1/1/1 5/2/1 7/3/1 3/4/1
f 4/5/2 3/6/2 7/7/2 8/8/2
f 8/9/3 7/10/3 5/11/3 6/12/3
f 6/13/4 2/14/4 4/15/4 8/16/4
f 2/14/5 1/1/5 3/4/5 4/15/5
f 6/12/6 5/11/6 1/1/6 2/14/6
o Plane
v -0.139608 1.618768 0.000000
v -0.206991 1.637696 0.000000
v -0.284217 1.605897 0.000000
v -0.730914 1.480216 0.000000
v -0.735457 1.379520 0.000000
v -0.700630 1.468102 0.000000
v -0.646117 1.490059 0.000000
v -0.354628 1.540028 0.000000
v -0.512865 1.490816 0.000000
v -0.651417 1.535485 0.000000
v -0.275131 1.672523 0.000000
v -0.387941 1.574098 0.000000
v -0.509837 1.530186 0.000000
v -0.471981 1.632396 0.000000
v -0.337644 1.725521 0.000000
v -0.181678 1.703565 0.000000
v -0.261932 1.742178 0.000000
v -0.392156 1.763377 0.000000
v -0.617776 1.636787 0.000000
v -0.739242 1.511258 0.000000
v -0.694194 1.612968 0.000000
v -0.522380 1.742178 0.000000
v -0.619206 1.690156 0.000000
v -0.176707 1.667223 0.000000
v -0.758927 1.399205 0.000000
v -0.092122 1.637666 0.000000
v -0.757837 1.304353 0.000000
v -0.831984 1.400540 0.000000
v -0.836265 1.345539 0.000000
v -0.970788 1.465525 0.000000
v -1.019370 1.451645 0.000000
v -1.030095 1.412527 0.000000
v -1.016846 1.343125 0.000000
v -0.976467 1.326090 0.000000
v -0.882458 1.347542 0.000000
v -0.893184 1.422622 0.000000
v -0.937051 1.392793 0.000000
v -0.010087 1.572978 0.000000
v -0.033249 1.669283 0.000000
v 0.004430 1.735221 0.000000
v 0.043993 1.833186 0.000000
v 0.096325 1.828825 0.000000
v 0.162830 1.760139 0.000000
v 0.155198 1.723071 0.000000
v 0.058166 1.675100 0.000000
v 0.000383 1.612956 0.000000
v 0.059851 1.740672 0.000000
v -0.677674 1.328278 0.000000
v -0.618800 1.395874 0.000000
v -0.538612 1.413630 0.000000
v -0.490152 1.405686 0.000000
v -0.595905 1.352264 0.000000
v -0.516317 1.384971 0.000000
v -0.578159 1.411856 0.000000
v -0.651688 1.350742 0.000000
v -0.598544 1.391166 0.000000
v -0.548645 1.399381 0.000000
v -0.556046 1.368998 0.000000
v -0.574989 1.394952 0.000000
v -0.579849 1.380373 0.000000
v -0.602593 1.309981 0.000000
v -0.537607 1.339635 0.000000
v -0.482086 1.385693 0.000000
v -0.098468 1.536918 0.000000
v -0.142248 1.527755 0.000000
v -0.195768 1.537575 0.000000
v -0.231611 1.532174 0.000000
v -0.260089 1.520390 0.000000
v -0.306735 1.468834 0.000000
v -0.244797 1.477319 0.000000
v -0.207465 1.492591 0.000000
v -0.174375 1.507015 0.000000
v -0.257536 1.498589 0.000000
v -0.237868 1.501783 0.000000
v -0.224434 1.518045 0.000000
v -0.203930 1.518045 0.000000
v -0.383665 1.411995 0.000000
v -0.290368 1.452467 0.000000
v -0.196189 1.455861 0.000000
v -0.142736 1.473679 0.000000
v -0.115586 1.501678 0.000000
v -0.738289 1.158962 0.000000
v -0.676996 1.027214 0.000000
v -0.527532 0.864514 0.000000
v -0.280953 0.747370 0.000000
v 0.156052 0.950038 0.000000
v 0.178044 1.257926 0.000000
v 0.076636 1.463184 0.000000
v -0.006494 0.803669 0.000000
v -0.476520 1.358237 0.000000
v -0.450862 1.277600 0.000000
v -0.322576 1.267825 0.000000
v -0.232164 1.352128 0.000000
v -0.270039 1.415660 0.000000
v -0.474076 1.256829 0.000000
v -0.188181 1.343575 0.000000
v -0.526613 1.313031 0.000000
v -0.194289 1.409551 0.000000
v -0.162523 1.358237 0.000000
v -0.499733 1.234837 0.000000
v -0.595185 1.133023 0.000000
v -0.531652 1.093926 0.000000
v -0.000027 1.338688 0.000000
v -0.025684 1.284930 0.000000
v -0.395845 1.112687 0.000000
v -0.266826 1.148023 0.000000
v -0.163511 1.197641 0.000000
v -0.456988 1.053879 0.000000
v -0.424747 1.072715 0.000000
v -0.401839 1.060836 0.000000
v -0.383173 1.083745 0.000000
v -0.339901 1.097320 0.000000
v -0.258450 1.114289 0.000000
v -0.178695 1.131258 0.000000
v -0.177846 1.153318 0.000000
v -0.126090 1.169438 0.000000
v -0.082819 1.180468 0.000000
v -0.079425 1.220346 0.000000
v -0.112515 1.230527 0.000000
v -0.454867 1.103825 0.000000
v -0.361690 1.027000 0.000000
v -0.290827 1.025778 0.000000
v -0.228516 1.045326 0.000000
v -0.175980 1.061210 0.000000
v -0.090048 1.138419 0.000000
v -0.728018 0.925171 0.000000
v -0.562719 0.739599 0.000000
v -0.277435 0.678755 0.000000
v -0.122611 0.715702 0.000000
v 0.170126 0.833921 0.000000
v 0.283605 1.192830 0.000000
v 0.368934 1.050322 0.000000
v -0.704853 1.062401 0.000000
v -0.764964 1.016951 0.000000
v -0.841203 1.036011 0.000000
v -0.920374 1.003756 0.000000
v -0.988778 0.740274 0.000000
v -0.930508 0.535063 0.000000
v -0.935575 0.248780 0.000000
v -0.494750 0.317184 0.000000
v -0.395945 0.517328 0.000000
v -0.384216 0.571575 0.000000
v -0.482446 0.630220 0.000000
v -0.612932 0.691798 0.000000
v -0.756613 0.856005 0.000000
v -0.728756 0.982092 0.000000
v -0.312131 0.561801 0.000000
v -0.269369 0.587458 0.000000
v -0.241268 0.577684 0.000000
v -0.126421 0.608228 0.000000
v -0.342186 0.525881 0.000000
v -0.386170 0.478231 0.000000
v -0.344630 0.468457 0.000000
v -0.315307 0.518550 0.000000
v -0.274989 0.509998 0.000000
v -0.228561 0.442800 0.000000
v -0.191908 0.461127 0.000000
v -0.243223 0.536877 0.000000
v -0.108827 0.557647 0.000000
v 0.164929 0.756015 0.000000
v 0.359162 0.965026 0.000000
v 0.405609 1.074810 0.000000
v 0.344383 1.184594 0.000000
v 0.240335 1.238739 0.000000
v 0.397130 1.185796 0.000000
v 0.496908 1.152197 0.000000
v 0.626962 1.208120 0.000000
v 0.663166 1.118417 0.000000
v 0.685510 0.858971 0.000000
v 0.653255 0.662509 0.000000
v 0.681111 0.515896 0.000000
v 0.801334 0.397139 0.000000
v 0.808665 0.313570 0.000000
v -0.002106 0.359020 0.000000
v 0.414275 0.369283 0.000000
v -0.958376 0.923529 0.000000
v -1.093495 0.820079 0.000000
v -1.370066 0.385165 0.000000
v -1.408068 0.133929 0.000000
v -1.097717 -0.307318 0.000000
v -1.028047 -0.313652 0.000000
v -0.878149 -0.132086 0.000000
v -0.874002 0.066220 0.000000
v -0.866671 0.248020 0.000000
v -0.873927 -0.442437 0.000000
v -0.814813 -0.250315 0.000000
v -0.646995 -0.359761 0.000000
v -0.304064 -0.436373 0.000000
v -0.063375 -0.431744 0.000000
v 0.385447 -0.319631 0.000000
v 0.775805 -0.108035 0.000000
v 0.801140 0.128423 0.000000
v 0.757441 0.314540 0.000000
v 0.738290 0.505633 0.000000
v 0.859979 0.452852 0.000000
v 0.889302 0.388342 0.000000
v 0.811597 0.067260 0.000000
v -0.278496 0.337954 0.000000
v 0.838398 1.063525 0.000000
v 1.226864 0.753174 0.000000
v 1.423208 0.461825 0.000000
v 1.423208 0.263369 0.000000
v 1.296535 -0.025869 0.000000
v 1.300757 -0.084984 0.000000
v 0.823619 -0.002646 0.000000
v 1.082304 -0.073255 0.000000
v -0.893984 -0.630043 0.000000
v -0.845425 -0.670156 0.000000
v -0.402067 -0.830610 0.000000
v -0.076938 -0.879168 0.000000
v 0.165853 -0.834832 0.000000
v 0.704217 -0.691268 0.000000
v -0.685126 -0.402076 0.000000
v -0.315379 -0.529004 0.000000
v -0.039449 -0.529004 0.000000
v 0.429632 -0.402076 0.000000
v 0.752470 -0.211685 0.000000
v 0.811830 -0.580896 0.000000
v 0.789755 -0.269096 0.000000
v 0.817348 -0.344976 0.000000
v 0.999002 -0.370270 0.000000
v 1.132368 -0.377168 0.000000
v 1.201351 -0.326581 0.000000
v 1.277232 -0.331180 0.000000
v 1.286429 -0.239203 0.000000
v 1.254237 -0.108136 0.000000
v -0.847725 -0.815019 0.000000
v -0.804036 -1.104746 0.000000
v -0.758048 -1.254208 0.000000
v -0.758559 -1.376460 0.000000
v -0.633879 -1.470353 0.000000
v -0.479176 -1.451958 0.000000
v -0.470620 -1.327789 0.000000
v -0.397039 -1.134638 0.000000
v -0.410836 -0.989775 0.000000
v -0.447626 -0.904697 0.000000
v -0.830415 -1.347717 0.000000
v -0.846383 -1.416381 0.000000
v -0.808060 -1.416381 0.000000
v -0.860755 -1.465882 0.000000
v -0.844787 -1.496221 0.000000
v -1.101402 -1.650742 0.000000
v -1.134513 -1.697650 0.000000
v -1.112439 -1.728003 0.000000
v -0.742692 -1.747318 0.000000
v -0.629561 -1.705928 0.000000
v -0.425373 -1.683854 0.000000
v -0.394767 -1.630627 0.000000
v -0.449325 -1.486913 0.000000
v -0.424042 -1.480260 0.000000
v -0.436018 -1.441670 0.000000
v -0.414727 -1.420379 0.000000
v -0.476439 -1.365821 0.000000
v 0.204177 -0.976629 0.000000
v 0.188848 -1.135672 0.000000
v 0.227171 -1.256392 0.000000
v 0.307651 -1.417351 0.000000
v 0.648648 -0.867557 0.000000
v 0.633318 -0.926959 0.000000
v 0.673558 -1.105164 0.000000
v 0.629486 -1.239296 0.000000
v 0.608408 -1.304446 0.000000
v 0.612240 -1.371513 0.000000
v 0.631402 -1.396423 0.000000
v 0.535593 -1.459657 0.000000
v 0.531761 -1.444328 0.000000
v 0.457029 -1.486484 0.000000
v 0.338226 -1.469238 0.000000
v 0.264537 -1.431723 0.000000
v 0.254956 -1.462062 0.000000
v 0.322022 -1.530725 0.000000
v 0.326813 -1.612163 0.000000
v 0.286892 -1.680826 0.000000
v 0.275714 -1.778232 0.000000
v 0.322022 -1.810168 0.000000
v 0.622224 -1.829330 0.000000
v 0.833004 -1.791007 0.000000
v 0.839391 -1.754280 0.000000
v 0.751566 -1.674439 0.000000
v 0.718033 -1.589808 0.000000
v 0.682903 -1.492402 0.000000
v 0.692484 -1.439707 0.000000
v 0.749969 -1.436513 0.000000
v 0.650967 -1.375834 0.000000
l 15 18
l 16 11
l 13 12
l 14 13
l 15 14
l 17 15
l 20 16
l 10 9
l 11 10
l 21 17
l 20 21
l 19 23
l 19 20
l 22 20
l 18 21
l 18 28
l 23 25
l 23 30
l 19 24
l 22 18
l 22 19
l 22 21
l 23 27
l 24 23
l 25 24
l 23 26
l 22 23
l 22 27
l 17 18
l 14 18
l 12 14
l 26 25
l 12 18
l 12 28
l 13 28
l 27 29
l 18 27
l 27 30
l 28 27
l 27 31
l 31 29
l 30 31
l 29 28
l 30 26
l 9 32
l 24 32
l 19 32
l 11 19
l 16 19
l 10 32
l 10 19
l 9 24
l 16 17
l 16 21
l 13 33
l 28 33
l 9 34
l 24 34
l 13 15
l 13 17
l 9 11
l 9 16
l 33 35
l 13 35
l 35 36
l 33 36
l 35 37
l 36 37
l 38 44
l 38 39
l 39 40
l 40 41
l 41 42
l 42 43
l 36 44
l 37 43
l 37 44
l 43 44
l 38 45
l 42 45
l 44 45
l 43 45
l 39 45
l 40 45
l 41 45
l 9 46
l 34 46
l 34 47
l 47 48
l 48 49
l 49 50
l 50 51
l 51 52
l 52 53
l 53 54
l 46 54
l 34 54
l 47 54
l 48 54
l 48 55
l 53 55
l 48 53
l 49 55
l 52 55
l 51 55
l 50 55
l 13 56
l 56 63
l 57 62
l 58 59
l 56 60
l 61 66
l 59 61
l 13 57
l 17 58
l 17 57
l 57 60
l 58 61
l 58 62
l 60 64
l 61 65
l 60 63
l 57 63
l 13 63
l 62 64
l 62 65
l 60 66
l 57 64
l 64 68
l 58 65
l 65 66
l 65 67
l 62 67
l 67 68
l 66 68
l 64 67
l 60 68
l 66 67
l 17 59
l 56 69
l 69 70
l 70 71
l 59 71
l 61 71
l 66 70
l 61 70
l 60 69
l 60 70
l 46 72
l 72 73
l 73 74
l 74 75
l 75 76
l 76 77
l 77 78
l 78 79
l 79 80
l 73 80
l 75 81
l 78 81
l 76 81
l 79 82
l 82 83
l 83 84
l 79 83
l 79 84
l 80 84
l 78 82
l 81 82
l 75 83
l 75 82
l 74 83
l 74 84
l 74 80
l 77 81
l 16 77
l 16 76
l 9 75
l 9 74
l 9 73
l 9 72
l 77 86
l 77 85
l 17 85
l 16 85
l 59 85
l 85 86
l 71 85
l 86 87
l 87 88
l 88 89
l 72 89
l 73 89
l 80 88
l 73 88
l 79 88
l 79 87
l 78 86
l 78 87
l 35 56
l 35 90
l 90 91
l 91 92
l 92 93
l 85 98
l 94 95
l 95 96
l 46 96
l 93 97
l 94 97
l 98 99
l 99 100
l 100 101
l 101 102
l 85 102
l 99 103
l 101 104
l 100 104
l 100 103
l 98 105
l 102 106
l 104 107
l 103 108
l 105 108
l 106 107
l 98 100
l 100 102
l 98 102
l 71 98
l 70 98
l 70 105
l 69 105
l 108 109
l 109 110
l 107 111
l 111 112
l 106 111
l 105 109
l 86 102
l 87 106
l 87 102
l 88 106
l 72 96
l 89 96
l 88 96
l 88 111
l 96 111
l 95 111
l 95 112
l 108 110
l 107 112
l 110 128
l 113 114
l 114 115
l 115 127
l 108 113
l 107 115
l 100 115
l 100 113
l 103 113
l 104 115
l 100 114
l 35 109
l 56 109
l 69 109
l 90 109
l 91 110
l 91 109
l 110 116
l 116 117
l 117 118
l 118 119
l 119 120
l 120 121
l 121 122
l 122 123
l 123 124
l 124 125
l 125 126
l 112 126
l 126 127
l 112 127
l 107 127
l 124 127
l 115 124
l 115 123
l 114 122
l 114 123
l 114 121
l 114 120
l 113 120
l 113 119
l 113 118
l 113 117
l 116 128
l 113 128
l 117 128
l 116 129
l 129 130
l 130 131
l 131 132
l 132 133
l 125 133
l 118 129
l 116 118
l 120 129
l 119 129
l 120 130
l 121 131
l 122 132
l 121 132
l 122 133
l 124 133
l 122 124
l 92 110
l 93 116
l 92 116
l 93 129
l 97 130
l 97 131
l 94 132
l 94 133
l 95 125
l 95 126
l 91 134
l 92 135
l 93 136
l 97 137
l 94 138
l 95 139
l 138 140
l 139 140
l 137 138
l 136 137
l 135 136
l 134 135
l 91 141
l 90 141
l 141 142
l 142 143
l 143 144
l 144 145
l 145 146
l 146 147
l 151 192
l 148 149
l 149 150
l 150 151
l 151 152
l 152 153
l 153 154
l 141 154
l 91 154
l 134 153
l 135 152
l 134 154
l 134 152
l 142 154
l 142 153
l 143 153
l 143 145
l 143 146
l 147 153
l 147 152
l 148 151
l 149 151
l 135 151
l 136 151
l 136 150
l 150 155
l 155 156
l 156 157
l 157 158
l 149 159
l 159 160
l 160 161
l 161 162
l 162 163
l 163 164
l 164 165
l 165 166
l 166 167
l 155 157
l 155 159
l 150 159
l 160 162
l 159 162
l 155 162
l 163 166
l 155 163
l 157 166
l 157 163
l 164 166
l 158 167
l 136 156
l 136 155
l 137 157
l 136 157
l 137 158
l 158 168
l 168 169
l 169 170
l 170 171
l 171 172
l 139 172
l 95 172
l 139 171
l 140 171
l 140 170
l 140 169
l 138 169
l 138 168
l 137 168
l 172 173
l 173 174
l 174 175
l 175 176
l 176 177
l 177 178
l 178 179
l 179 180
l 180 181
l 144 184
l 167 182
l 167 181
l 167 168
l 168 180
l 167 180
l 168 179
l 168 178
l 169 178
l 170 177
l 169 177
l 171 173
l 170 173
l 170 174
l 174 176
l 174 177
l 182 183
l 181 201
l 145 184
l 184 185
l 185 186
l 186 187
l 187 188
l 188 189
l 189 190
l 190 191
l 147 191
l 145 185
l 145 186
l 146 186
l 146 187
l 147 187
l 187 191
l 188 190
l 188 191
l 191 192
l 147 192
l 148 192
l 152 192
l 146 153
l 189 193
l 193 194
l 190 194
l 190 193
l 194 195
l 195 196
l 196 197
l 197 198
l 198 199
l 199 200
l 200 201
l 183 201
l 167 201
l 178 202
l 202 203
l 203 204
l 204 205
l 200 205
l 200 204
l 181 204
l 181 200
l 181 203
l 180 202
l 179 202
l 182 206
l 149 160
l 161 163
l 161 164
l 148 160
l 148 161
l 164 182
l 148 206
l 161 206
l 164 206
l 165 182
l 165 167
l 148 191
l 148 190
l 148 194
l 195 206
l 148 195
l 196 206
l 197 206
l 182 197
l 182 198
l 183 198
l 183 199
l 183 200
l 176 207
l 207 208
l 208 209
l 209 210
l 210 211
l 211 212
l 199 213
l 205 213
l 212 214
l 213 214
l 199 205
l 177 207
l 178 208
l 177 208
l 202 208
l 203 208
l 204 209
l 203 209
l 204 210
l 204 211
l 205 212
l 204 212
l 205 214
l 194 215
l 215 216
l 216 217
l 217 218
l 218 219
l 219 220
l 194 221
l 221 222
l 222 223
l 223 224
l 224 225
l 199 225
l 198 224
l 197 223
l 196 222
l 195 221
l 196 221
l 196 223
l 197 224
l 198 225
l 220 226
l 226 227
l 225 227
l 224 227
l 224 226
l 220 224
l 219 224
l 219 223
l 218 223
l 217 223
l 217 222
l 217 221
l 216 221
l 215 221
l 227 228
l 228 229
l 229 230
l 230 231
l 231 232
l 232 233
l 233 234
l 212 234
l 214 234
l 214 233
l 214 232
l 214 231
l 199 214
l 214 225
l 214 227
l 214 228
l 214 229
l 214 230
l 216 235
l 235 236
l 236 237
l 237 238
l 238 239
l 239 240
l 240 261
l 241 242
l 242 243
l 243 244
l 217 244
l 217 235
l 235 244
l 236 244
l 237 243
l 236 243
l 237 242
l 237 241
l 238 241
l 239 241
l 238 245
l 245 246
l 246 247
l 247 248
l 248 249
l 249 250
l 250 251
l 251 252
l 252 253
l 253 254
l 254 255
l 255 256
l 256 257
l 257 258
l 258 259
l 259 260
l 260 261
l 241 261
l 239 261
l 240 259
l 259 261
l 240 258
l 239 257
l 239 256
l 239 255
l 239 254
l 245 247
l 238 247
l 247 249
l 239 247
l 247 254
l 247 253
l 249 253
l 249 252
l 249 251
l 219 262
l 262 263
l 263 264
l 264 265
l 220 266
l 266 267
l 267 268
l 268 269
l 269 270
l 270 271
l 271 272
l 272 273
l 273 274
l 274 275
l 275 276
l 265 276
l 220 262
l 262 266
l 262 267
l 263 267
l 263 268
l 264 268
l 264 269
l 265 269
l 265 270
l 270 276
l 270 275
l 271 274
l 270 274
l 272 274
l 265 277
l 277 278
l 278 279
l 279 280
l 280 281
l 281 282
l 282 283
l 283 284
l 284 285
l 285 286
l 286 287
l 287 288
l 288 289
l 289 290
l 290 291
l 291 292
l 272 292
l 271 292
l 265 278
l 276 278
l 276 279
l 275 279
l 273 275
l 273 290
l 272 290
l 272 291
l 273 289
l 275 288
l 273 288
l 275 280
l 281 288
l 280 288
l 282 287
l 281 287
l 285 287
l 284 287
l 283 287
