# Blender v2.93.4 OBJ File: 'coffin.blend'
# www.blender.org
mtllib coffin_cristal.mtl
o Cristal_Circle
v -0.000000 5.482069 -0.004709
v -0.376180 5.418083 -0.004709
v -0.737903 5.228582 -0.004709
v -1.071270 4.920851 -0.004709
v -1.363467 4.506714 -0.004709
v -1.603268 4.002087 -0.004709
v -1.781456 3.426361 -0.004709
v -1.891184 2.801663 -0.004709
v -1.928234 2.151998 -0.004709
v 1.071270 4.920851 -3.990662
v 1.363468 4.506713 -3.990662
v 1.603268 4.002086 -3.990662
v 1.781456 3.426362 -3.990662
v 1.891184 2.801663 -3.990662
v 1.928234 2.151998 -3.990662
v -1.928234 2.151998 -3.990662
v -1.891184 2.801663 -3.990662
v -1.781456 3.426361 -3.990662
v -1.603268 4.002086 -3.990662
v -1.363467 4.506714 -3.990662
v -1.071270 4.920851 -3.990662
v -0.737903 5.228582 -3.990662
v -0.376180 5.418083 -3.990662
v -0.000000 5.482069 -3.990662
v 1.928234 2.151998 -0.004709
v 1.891184 2.801663 -0.004709
v 1.781456 3.426362 -0.004709
v 1.603268 4.002086 -0.004709
v 1.363468 4.506713 -0.004709
v 1.071270 4.920851 -0.004709
v 0.737903 5.228583 -0.004709
v 0.376180 5.418083 -0.004709
v 0.737903 5.228583 -3.990662
v 0.376180 5.418083 -3.990662
v -0.000000 5.482069 3.995371
v -0.376180 5.418083 3.995371
v -0.737903 5.228582 3.995371
v -1.071270 4.920851 3.995371
v -1.363467 4.506714 3.995371
v -1.603268 4.002086 3.995371
v -1.781456 3.426361 3.995371
v -1.891184 2.801663 3.995371
v -1.928234 2.151998 3.995371
v 1.928234 2.151998 3.995371
v 1.891184 2.801663 3.995371
v 1.781456 3.426362 3.995371
v 1.603268 4.002086 3.995371
v 1.363468 4.506713 3.995371
v 1.071270 4.920851 3.995371
v 0.737903 5.228583 3.995371
v 0.376180 5.418083 3.995371
vt 0.325390 0.142371
vt 0.290577 0.283694
vt 0.290577 0.142371
vt 0.390452 0.142371
vt 0.357921 0.283694
vt 0.357921 0.142371
vt 0.715710 0.142371
vt 0.660235 0.283694
vt 0.660235 0.142371
vt 0.251899 0.283694
vt 0.251899 0.142371
vt 0.606162 0.283694
vt 0.606162 0.142371
vt 0.208689 0.283694
vt 0.208689 0.142371
vt 0.554784 0.283694
vt 0.554784 0.142371
vt 0.161058 0.142371
vt 0.161058 0.283694
vt 0.507152 0.283694
vt 0.507152 0.142371
vt 0.109679 0.283694
vt 0.109679 0.142371
vt 0.463943 0.283694
vt 0.463943 0.142371
vt 0.055606 0.283694
vt 0.055606 0.142371
vt 0.425265 0.283694
vt 0.425265 0.142371
vt 0.000131 0.283694
vt 0.000131 0.142371
vt 0.325390 0.283694
vt 0.390452 0.283694
vt 0.325390 0.000547
vt 0.390452 0.000547
vt 0.715710 0.000547
vt 0.290577 0.000547
vt 0.660235 0.000547
vt 0.251899 0.000547
vt 0.606162 0.000547
vt 0.208689 0.000547
vt 0.554783 0.000547
vt 0.161058 0.000547
vt 0.507152 0.000547
vt 0.109679 0.000547
vt 0.463943 0.000547
vt 0.055607 0.000547
vt 0.357921 0.000547
vt 0.425265 0.000547
vt 0.737583 0.095075
vt 0.721427 0.082250
vt 0.737583 0.042750
vt 0.737583 0.231916
vt 0.721427 0.219091
vt 0.721427 0.192416
vt 0.715710 0.283694
vt 0.000131 0.000547
vt 0.715972 0.068913
vt 0.721427 0.055575
vt 0.763818 0.030931
vt 0.763817 0.106895
vt 0.799124 0.020571
vt 0.842145 0.012069
vt 0.842144 0.125757
vt 0.891227 0.005751
vt 0.944484 0.001861
vt 0.944483 0.135965
vt 0.999869 0.000547
vt 0.999869 0.137279
vt 0.891226 0.132075
vt 0.799124 0.117255
vt 0.715972 0.205754
vt 0.737583 0.179591
vt 0.763817 0.167772
vt 0.799124 0.157412
vt 0.799124 0.254096
vt 0.842144 0.148909
vt 0.891226 0.142592
vt 0.891226 0.268916
vt 0.944483 0.138701
vt 0.999869 0.137388
vt 0.999869 0.274120
vt 0.944483 0.272806
vt 0.842144 0.262598
vt 0.763817 0.243736
vn -0.3198 0.9475 0.0000
vn -0.4231 0.6002 -0.6788
vn -0.5761 0.8173 0.0000
vn 0.3198 0.9475 0.0000
vn 0.0000 0.7412 -0.6712
vn 0.0000 1.0000 0.0000
vn 0.9984 0.0569 0.0000
vn 0.7150 0.0829 -0.6942
vn 0.9933 0.1151 0.0000
vn -0.5484 0.4808 -0.6842
vn -0.7519 0.6593 0.0000
vn 0.7006 0.1692 -0.6932
vn 0.9720 0.2348 0.0000
vn -0.6261 0.3661 -0.6884
vn -0.8633 0.5047 0.0000
vn 0.6731 0.2625 -0.6913
vn 0.9316 0.3634 0.0000
vn -0.9316 0.3634 0.0000
vn -0.6731 0.2625 -0.6913
vn 0.6261 0.3661 -0.6884
vn 0.8633 0.5047 0.0000
vn -0.7006 0.1692 -0.6932
vn -0.9720 0.2348 0.0000
vn 0.5484 0.4808 -0.6842
vn 0.7519 0.6593 0.0000
vn -0.7150 0.0829 -0.6942
vn -0.9933 0.1151 0.0000
vn 0.4231 0.6002 -0.6788
vn 0.5761 0.8173 0.0000
vn -0.7189 0.0410 -0.6939
vn -0.9984 0.0569 0.0000
vn -0.2364 0.7003 -0.6735
vn 0.2364 0.7003 -0.6735
vn -0.2364 0.7003 0.6735
vn 0.2364 0.7003 0.6735
vn 0.7189 0.0410 0.6939
vn -0.4231 0.6002 0.6788
vn 0.7150 0.0829 0.6942
vn -0.5484 0.4808 0.6842
vn 0.7006 0.1692 0.6932
vn -0.6261 0.3661 0.6884
vn 0.6731 0.2625 0.6913
vn -0.6731 0.2625 0.6913
vn 0.6261 0.3661 0.6884
vn -0.7006 0.1692 0.6932
vn 0.5484 0.4808 0.6842
vn -0.7150 0.0829 0.6942
vn 0.0000 0.7412 0.6712
vn 0.4231 0.6002 0.6788
vn 0.7189 0.0410 -0.6939
vn -0.7189 0.0410 0.6939
usemtl All
s 1
f 2/1/1 22/2/2 3/3/3
f 32/4/4 24/5/5 1/6/6
f 25/7/7 14/8/8 26/9/9
f 3/3/3 21/10/10 4/11/11
f 26/9/9 13/12/12 27/13/13
f 4/11/11 20/14/14 5/15/15
f 27/13/13 12/16/16 28/17/17
f 6/18/18 20/14/14 19/19/19
f 28/17/17 11/20/20 29/21/21
f 6/18/18 18/22/22 7/23/23
f 29/21/21 10/24/24 30/25/25
f 7/23/23 17/26/26 8/27/27
f 30/25/25 33/28/28 31/29/29
f 8/27/27 16/30/30 9/31/31
f 1/6/6 23/32/32 2/1/1
f 31/29/29 34/33/33 32/4/4
f 3/3/3 36/34/34 2/1/1
f 1/6/6 51/35/35 32/4/4
f 26/9/9 44/36/36 25/7/7
f 4/11/11 37/37/37 3/3/3
f 27/13/13 45/38/38 26/9/9
f 5/15/15 38/39/39 4/11/11
f 28/17/17 46/40/40 27/13/13
f 6/18/18 39/41/41 5/15/15
f 29/21/21 47/42/42 28/17/17
f 7/23/23 40/43/43 6/18/18
f 30/25/25 48/44/44 29/21/21
f 8/27/27 41/45/45 7/23/23
f 31/29/29 49/46/46 30/25/25
f 9/31/31 42/47/47 8/27/27
f 2/1/1 35/48/48 1/6/6
f 32/4/4 50/49/49 31/29/29
f 50/50/49 51/51/35 37/52/37
f 22/53/2 23/54/32 34/55/33
f 2/1/1 23/32/32 22/2/2
f 32/4/4 34/33/33 24/5/5
f 25/7/7 15/56/50 14/8/8
f 3/3/3 22/2/2 21/10/10
f 26/9/9 14/8/8 13/12/12
f 4/11/11 21/10/10 20/14/14
f 27/13/13 13/12/12 12/16/16
f 6/18/18 5/15/15 20/14/14
f 28/17/17 12/16/16 11/20/20
f 6/18/18 19/19/19 18/22/22
f 29/21/21 11/20/20 10/24/24
f 7/23/23 18/22/22 17/26/26
f 30/25/25 10/24/24 33/28/28
f 8/27/27 17/26/26 16/30/30
f 1/6/6 24/5/5 23/32/32
f 31/29/29 33/28/28 34/33/33
f 3/3/3 37/37/37 36/34/34
f 1/6/6 35/48/48 51/35/35
f 26/9/9 45/38/38 44/36/36
f 4/11/11 38/39/39 37/37/37
f 27/13/13 46/40/40 45/38/38
f 5/15/15 39/41/41 38/39/39
f 28/17/17 47/42/42 46/40/40
f 6/18/18 40/43/43 39/41/41
f 29/21/21 48/44/44 47/42/42
f 7/23/23 41/45/45 40/43/43
f 30/25/25 49/46/46 48/44/44
f 8/27/27 42/47/47 41/45/45
f 31/29/29 50/49/49 49/46/46
f 9/31/31 43/57/51 42/47/47
f 2/1/1 36/34/34 35/48/48
f 32/4/4 51/35/35 50/49/49
f 35/58/48 36/59/34 51/51/35
f 36/59/34 37/52/37 51/51/35
f 37/52/37 38/60/39 49/61/46
f 38/60/39 39/62/41 49/61/46
f 39/62/41 40/63/43 47/64/42
f 40/63/43 41/65/45 47/64/42
f 41/65/45 42/66/47 45/67/38
f 42/66/47 43/68/51 45/67/38
f 43/68/51 44/69/36 45/67/38
f 45/67/38 46/70/40 41/65/45
f 46/70/40 47/64/42 41/65/45
f 47/64/42 48/71/44 39/62/41
f 48/71/44 49/61/46 39/62/41
f 49/61/46 50/50/49 37/52/37
f 23/54/32 24/72/5 34/55/33
f 34/55/33 33/73/28 22/53/2
f 33/73/28 10/74/24 22/53/2
f 10/74/24 11/75/20 20/76/14
f 11/75/20 12/77/16 20/76/14
f 12/77/16 13/78/12 18/79/22
f 13/78/12 14/80/8 18/79/22
f 14/80/8 15/81/50 16/82/30
f 16/82/30 17/83/26 14/80/8
f 17/83/26 18/79/22 14/80/8
f 18/79/22 19/84/19 12/77/16
f 19/84/19 20/76/14 12/77/16
f 20/76/14 21/85/10 10/74/24
f 21/85/10 22/53/2 10/74/24
